<?xml version="1.0" encoding="UTF-8" standalone="no"?>
<!-- Created with Inkscape (http://www.inkscape.org/) -->

<svg
   xmlns:dc="http://purl.org/dc/elements/1.1/"
   xmlns:cc="http://creativecommons.org/ns#"
   xmlns:rdf="http://www.w3.org/1999/02/22-rdf-syntax-ns#"
   xmlns:svg="http://www.w3.org/2000/svg"
   xmlns="http://www.w3.org/2000/svg"
   xmlns:sodipodi="http://sodipodi.sourceforge.net/DTD/sodipodi-0.dtd"
   xmlns:inkscape="http://www.inkscape.org/namespaces/inkscape"
   id="svg3436"
   version="1.1"
   inkscape:version="0.91 r13725"
   width="191.25"
   height="277.5"
   viewBox="0 0 191.25 277.5"
   sodipodi:docname="Heron.svg">
  <metadata
     id="metadata3442">
    <rdf:RDF>
      <cc:Work
         rdf:about="">
        <dc:format>image/svg+xml</dc:format>
        <dc:type
           rdf:resource="http://purl.org/dc/dcmitype/StillImage" />
        <dc:title></dc:title>
      </cc:Work>
    </rdf:RDF>
  </metadata>
  <defs
     id="defs3440" />
  <sodipodi:namedview
     pagecolor="#ffffff"
     bordercolor="#666666"
     borderopacity="1"
     objecttolerance="10"
     gridtolerance="10"
     guidetolerance="10"
     inkscape:pageopacity="0"
     inkscape:pageshadow="2"
     inkscape:window-width="1600"
     inkscape:window-height="837"
     id="namedview3438"
     showgrid="false"
     inkscape:zoom="2.4144144"
     inkscape:cx="95.625"
     inkscape:cy="138.75"
     inkscape:window-x="-8"
     inkscape:window-y="-8"
     inkscape:window-maximized="1"
     inkscape:current-layer="svg3436" />
  <path
     style="fill:#000000"
     d="m 64.21875,276.68328 c 3.004588,-1.29202 17.612515,-1.88976 16.394908,-0.67087 -0.559766,0.56036 -4.899491,1.12196 -9.643833,1.24799 -5.446804,0.1447 -7.935016,-0.0681 -6.751075,-0.57712 z m 24.375,-1.67229 c 1.03125,-0.21807 2.824219,-0.59904 3.984375,-0.84661 1.160156,-0.24755 2.108691,-0.96941 2.107847,-1.60411 -9.38e-4,-0.88633 -7.340836,-1.20727 -31.640621,-1.38359 -17.401506,-0.12625 -31.850039,-0.24455 -32.107851,-0.26287 -0.257813,-0.0184 0.164062,-0.38484 0.9375,-0.81446 0.773437,-0.42963 12.375,-0.4757 25.78125,-0.10238 13.40625,0.37332 24.691406,0.50184 25.078125,0.28557 1.38964,-0.77711 0.662771,-2.03491 -1.40625,-2.43342 -1.808574,-0.34834 -1.74173,-0.42449 0.46875,-0.53395 1.417969,-0.0702 2.578125,-0.58172 2.578125,-1.13667 0,-0.69544 -4.734371,-0.88406 -15.234375,-0.60694 -8.378906,0.22114 -14.179688,0.0845 -12.890625,-0.3038 1.289062,-0.38823 8.25,-0.75367 15.46875,-0.81211 15.249075,-0.12345 21.324421,-1.17493 11.71875,-2.02821 l -6.09375,-0.54131 7.6577,-0.16182 c 8.12327,-0.17164 10.939403,-0.7673 10.094087,-2.13504 -0.285281,-0.4616 0.319819,-0.83927 1.344666,-0.83927 1.024856,0 2.42085,-0.53227 3.102206,-1.18281 0.681361,-0.65055 2.453511,-1.72103 3.938121,-2.37885 1.48459,-0.65782 2.45255,-1.44276 2.15101,-1.7443 -0.95347,-0.95347 -18.31252,0.73662 -19.257208,1.8749 -0.668351,0.80531 0.233868,1.01389 3.470647,0.80238 3.241833,-0.21185 4.009834,-0.0337 2.967521,0.68833 -0.773438,0.53577 -3.304688,0.98568 -5.625,0.99978 -2.690586,0.0163 -5.636556,0.8364 -8.132838,2.26383 -2.152747,1.23101 -5.738685,2.46532 -7.96875,2.74293 l -4.054662,0.50476 3.515625,-1.04457 c 5.252902,-1.56074 4.253353,-2.45163 -2.34375,-2.08896 -4.529191,0.24899 -5.008057,0.16892 -2.109375,-0.35271 l 3.75,-0.67484 -4.290361,-0.70672 c -2.359698,-0.3887 -4.921272,-0.46462 -5.692387,-0.16871 -0.886901,0.34033 -1.7718,-0.27356 -2.408444,-1.67083 -1.038538,-2.27935 -4.868606,-3.47693 -15.733808,-4.91963 -2.578125,-0.34233 -6.110115,-1.21508 -7.848866,-1.93945 -1.738752,-0.72437 -5.134845,-1.31703 -7.546875,-1.31703 -2.41203,0 -4.855359,-0.46985 -5.42962,-1.04411 -0.634832,-0.63483 -4.475079,-1.00241 -9.796875,-0.93776 -4.8140198,0.0585 -9.3855765,-0.30893 -10.159014,-0.81653 -1.74390357,-1.14448 -1.61756123,-1.1569 9.84375,-0.96746 5.15625,0.0852 9.775781,0.54553 10.265625,1.0229 1.390345,1.35496 6.488093,1.0223 10.479259,-0.68384 2.928604,-1.25191 9.789883,-1.77165 35.505116,-2.68952 17.53125,-0.62574 32.71875,-0.8257 33.75,-0.44433 3.3121,1.22483 41.19875,-0.39893 45,-1.92863 1.07,-0.43058 -1.54626,-0.59159 -6.09375,-0.375 -5.953,0.28354 -7.02016,0.1774 -4.21875,-0.41956 5.28145,-1.12544 22.03125,-1.8568 22.03125,-0.96197 0,0.4086 -3.05859,1.38216 -6.79688,2.16345 -6.60447,1.38034 -9.4478,1.69161 -27.65624,3.0276 -8.034,0.58948 -10.38923,1.39304 -7.5,2.55887 0.9375,0.37829 0.9375,0.48766 0,0.54687 -1.38351,0.0874 -1.57344,2.52769 -0.25992,3.33948 0.50158,0.31 3.23918,-0.53732 6.08355,-1.88292 3.09948,-1.46629 6.20865,-2.28967 7.75991,-2.05501 2.49814,0.37789 2.4855,0.39643 -0.36285,0.532 -3.20347,0.15248 -12.2775,4.79765 -9.40906,4.81667 0.93624,0.007 2.57192,-0.45413 3.63485,-1.023 1.16202,-0.62189 2.1654,-0.6869 2.51649,-0.16304 0.83118,1.2402 16.95503,-0.2446 27.39166,-2.52243 4.77029,-1.04113 8.8715,-1.69471 9.11381,-1.45242 0.62982,0.62982 -1.23041,1.21087 -9.20282,2.87447 -10.94797,2.28451 -27.12148,3.84518 -42.99093,4.14841 -0.69969,0.0134 -1.04907,0.60572 -0.77638,1.31632 0.27268,0.7106 0.0225,1.76529 -0.55595,2.34375 -0.77151,0.77151 -0.77281,1.05174 -0.005,1.05174 0.57577,0 1.18749,-0.39068 1.35937,-0.86818 0.17187,-0.47751 1.54202,-1.17346 3.04477,-1.54658 2.29988,-0.57103 2.63836,-0.43363 2.1388,0.86819 -0.53904,1.40474 1.09473,1.54657 17.8146,1.54657 10.12445,0 18.2129,0.19518 17.97435,0.43373 -0.23856,0.23855 -8.32062,0.48351 -17.96015,0.54435 -10.53383,0.0665 -17.75728,0.48418 -18.10506,1.0469 -0.38003,0.61489 5.54903,0.8303 17.2726,0.62753 12.19584,-0.21094 17.35131,-0.0117 16.27317,0.62874 -1.439,0.85488 -6.76852,1.12629 -26.18746,1.33367 -8.07467,0.0863 -9.1153,1.70853 -1.40625,2.19228 l 5.39063,0.33827 -5.74219,0.17727 c -5.45272,0.16833 -5.74219,0.2954 -5.74219,2.52101 l 0,2.34375 16.52344,0.007 16.52344,0.007 -2.71062,1.78697 c -3.07818,2.0293 -8.63382,2.67948 -28.93001,3.38576 -9.10621,0.31687 -13.82812,0.15401 -13.82812,-0.47696 0,-0.52697 1.6875,-0.95813 3.75,-0.95813 2.0625,0 3.75,-0.42048 3.75,-0.9344 0,-0.54139 -2.76021,-0.89239 -6.5625,-0.8345 -3.609377,0.0549 -6.562502,0.47542 -6.562502,0.93439 0,0.45898 0.738281,0.88442 1.640625,0.94542 2.895737,0.19578 -3.846928,1.54217 -7.734375,1.54441 -2.0625,9.4e-4 -2.90625,-0.17625 -1.875,-0.39433 z m 53.4375,-3.05572 c 1.98126,-0.60343 -1.69007,-0.88043 -12.42188,-0.93719 -10.68703,-0.0565 -15.23437,0.23352 -15.23437,0.97171 0,0.72704 -0.43466,0.69155 -1.40625,-0.11479 -1.16035,-0.96301 -1.40625,-0.87552 -1.40625,0.50033 0,1.55068 0.96816,1.62433 13.82813,1.05198 7.60546,-0.33849 15.09374,-1.00091 16.64062,-1.47204 z m -42.132966,-5.73549 c 1.516886,-2.07911 3.690176,-4.90861 4.829546,-6.28778 2.17696,-2.63514 2.16052,-4.07572 -0.0258,-2.26123 -0.70443,0.58463 -1.62602,0.75021 -2.04796,0.36797 -0.42195,-0.38224 -0.48205,-0.19734 -0.13357,0.41089 1.06676,1.86193 -9.992998,9.70794 -13.890882,9.85447 -5.817807,0.21872 -3.555904,1.6959 2.596774,1.6959 5.826457,0 5.954697,-0.0559 8.671872,-3.78022 z m 2.289216,2.84272 c 0,-0.51563 -0.39697,-0.9375 -0.88217,-0.9375 -0.48519,0 -1.1429,0.42187 -1.46158,0.9375 -0.318675,0.51562 0.07828,0.9375 0.88217,0.9375 0.80387,0 1.46158,-0.42188 1.46158,-0.9375 z m 7.56967,-0.70313 c 0.0383,-0.90234 0.24661,-2.58984 0.46287,-3.75 0.21625,-1.16015 0.0677,-2.10937 -0.33007,-2.10937 -0.97518,0 -3.95247,3.53904 -3.95247,4.69822 0,0.50972 -0.42187,0.92678 -0.9375,0.92678 -0.51562,0 -0.9375,0.42187 -0.9375,0.9375 0,0.51562 1.26563,0.9375 2.8125,0.9375 2.02703,0 2.83195,-0.45819 2.88217,-1.64063 z m 3.30418,-1.65603 c 0.13851,-1.2992 -0.14206,-2.11872 -0.62351,-1.82118 -0.48143,0.29755 -0.87534,1.6411 -0.87534,2.98567 0,2.99398 1.15081,2.09988 1.49885,-1.16449 z M 90,266.25 c 1.143259,-0.73883 1.02211,-0.91148 -0.647797,-0.92315 -1.129726,-0.008 -2.314779,0.40752 -2.633453,0.92315 -0.737693,1.19362 1.434266,1.19362 3.28125,0 z m 9.84375,-5.625 c 0.31868,-0.51563 0.15753,-0.9375 -0.358097,-0.9375 -0.515625,0 -1.198228,0.42187 -1.516903,0.9375 -0.318675,0.51562 -0.157528,0.9375 0.358097,0.9375 0.515625,0 1.198228,-0.42188 1.516903,-0.9375 z m 10.78125,-0.84973 c 0,-0.46735 -0.84375,-0.62909 -1.875,-0.35941 -1.03125,0.26968 -1.875,0.65206 -1.875,0.84973 0,0.19767 0.84375,0.35941 1.875,0.35941 1.03125,0 1.875,-0.38238 1.875,-0.84973 z m 2.49589,-2.19715 c -0.26007,-0.64453 -0.47287,-0.11718 -0.47287,1.17188 0,1.28906 0.2128,1.81641 0.47287,1.17187 0.26007,-0.64453 0.26007,-1.69921 0,-2.34375 z m -38.568011,-1.24133 c 2.651998,-1.10807 3.702308,-1.19992 4.216054,-0.36865 0.492138,0.79629 0.864197,0.81578 1.325458,0.0695 0.787915,-1.27487 1.362245,-1.19696 -11.528094,-1.56407 -9.111006,-0.25947 -10.402631,-0.12071 -8.926005,0.95903 1.073641,0.78506 3.207429,1.09956 5.643134,0.83171 2.213514,-0.2434 4.182605,-4.3e-4 4.528208,0.55877 0.768282,1.24311 0.548348,1.26567 4.741245,-0.48624 z m 10.505715,-1.9032 c -0.311524,-0.31152 -1.120117,-0.34482 -1.796875,-0.074 -0.747875,0.29927 -0.525728,0.52142 0.566406,0.5664 0.988281,0.0407 1.541992,-0.18087 1.230469,-0.49239 z M 73.125,252.55595 c 0,-0.20264 -0.868648,-0.36845 -1.930328,-0.36845 -1.061681,0 -1.680983,0.40345 -1.376227,0.89656 0.500263,0.80944 3.306555,0.36123 3.306555,-0.52811 z m -5.423388,-0.69273 c 2.209426,-0.69398 6.442919,-1.98116 9.407763,-2.86041 2.964844,-0.87924 5.390625,-1.68619 5.390625,-1.7932 0,-0.10702 -3.167875,-0.13192 -7.039722,-0.0553 -3.871848,0.0766 -7.271745,-0.23618 -7.555329,-0.69502 -0.283583,-0.45885 2.356948,-0.86635 5.867848,-0.90557 9.229105,-0.10309 18.333678,-0.78454 18.963761,-1.41937 0.299581,-0.30185 -12.61809,-0.40605 -28.705935,-0.23157 -21.786165,0.23628 -29.549517,0.61613 -30.421875,1.48849 -0.936664,0.93667 -0.898985,1.17413 0.188127,1.1856 1.168032,0.0124 1.171753,0.13311 0.02644,0.858 -0.987472,0.62499 -0.380029,1.0863 2.34375,1.77991 3.474585,0.8848 15.704438,2.65301 22.895438,3.31027 1.804687,0.16494 3.582913,0.36741 3.951612,0.44993 0.368699,0.0825 2.478074,-0.41776 4.6875,-1.11174 z m -2.007344,-2.8735 c -0.750477,-0.90428 -0.786796,-1.51501 -0.114791,-1.93034 0.540663,-0.33414 0.983023,-0.16077 0.983023,0.38529 0,0.54605 0.632812,0.99283 1.40625,0.99283 0.773437,0 1.40625,0.42187 1.40625,0.9375 0,1.38926 -2.418053,1.13615 -3.680732,-0.38528 z m 13.429589,2.70648 c 1.494685,-0.77947 2.936091,-1.19875 3.203125,-0.93172 0.267035,0.26704 -0.0067,0.48552 -0.608232,0.48552 -0.601563,0 -1.09375,0.45284 -1.09375,1.0063 0,0.55348 2.266197,-0.29028 5.035994,-1.875 5.257258,-3.00789 7.151506,-3.52276 7.151506,-1.9438 0,0.51562 -0.632813,0.9375 -1.40625,0.9375 -0.773438,0 -1.40625,0.42187 -1.40625,0.9375 0,0.51562 -0.84375,0.9375 -1.875,0.9375 -1.03125,0 -1.875,0.42187 -1.875,0.9375 0,1.34984 0.822139,1.1988 6.348063,-1.16622 4.495728,-1.92411 4.918859,-2.36239 4.687503,-4.85533 -0.297253,-3.20301 -2.185922,-4.2539 -3.005316,-1.67221 -0.375384,1.18271 -1.478821,1.81039 -3.272261,1.86139 -1.488243,0.0423 -5.415562,1.16097 -8.727374,2.4859 -3.311814,1.32493 -6.515722,2.40897 -7.119797,2.40897 -0.604075,0 -1.098318,0.42187 -1.098318,0.9375 0,1.33615 1.913287,1.15043 5.061357,-0.4913 z M 108.75,250.4128 c 0,-0.97608 -0.66731,-2.03077 -1.48293,-2.34375 -3.18566,-1.22245 -8.82957,-0.31849 -8.82957,1.41419 0,0.46483 0.780075,0.35798 1.7335,-0.23745 1.09507,-0.68387 2.73512,-0.80374 4.45313,-0.32546 2.57551,0.71701 2.47438,0.796 -1.90832,1.49069 -2.54536,0.40345 -4.967804,0.52351 -5.383201,0.26678 -0.415387,-0.25673 -1.496878,-0.0349 -2.403309,0.49295 -1.221883,0.71156 0.351975,0.96711 6.08633,0.98824 6.9737,0.0257 7.73437,-0.14603 7.73437,-1.74619 z m 4.6875,-2.9128 c 0,-2.0625 -0.42187,-3.75 -0.9375,-3.75 -0.51562,0 -0.9375,1.02019 -0.9375,2.26707 0,1.2469 -0.25607,2.9344 -0.56905,3.75 -0.37342,0.97312 -0.0511,1.48293 0.9375,1.48293 1.13264,0 1.50655,-0.9307 1.50655,-3.75 z m -4.88378,-2.69239 c 0.23088,-0.69268 -1.29186,-1.05761 -4.4131,-1.05761 -3.1871,0 -4.765864,0.38816 -4.766351,1.17187 -9.28e-4,1.50196 8.676711,1.39395 9.179451,-0.11426 z m -37.056454,22.64466 c 1.425058,-0.21549 3.534433,-0.20973 4.6875,0.0127 1.153066,0.22252 -0.01289,0.39883 -2.591016,0.3918 -2.578125,-0.008 -3.521543,-0.18911 -2.096484,-0.4046 z m 52.487114,-0.95997 c 3.48046,-0.18039 9.17578,-0.18039 12.65624,0 3.48047,0.18038 0.63282,0.32796 -6.32812,0.32796 -6.96094,0 -9.80859,-0.14758 -6.32812,-0.32796 z m 7.03124,-2.77892 c 1.16016,-0.22346 3.0586,-0.22346 4.21875,0 1.16016,0.22345 0.21094,0.40628 -2.10937,0.40628 -2.32031,0 -3.26953,-0.18283 -2.10938,-0.40628 z m -85.593745,-1.12239 c -0.489844,-0.46557 -1.734375,-1.04944 -2.765625,-1.29749 -1.03125,-0.24805 1.289062,-0.50458 5.15625,-0.57006 3.867187,-0.0655 8.71875,-0.33626 10.78125,-0.60172 3.280819,-0.42225 3.459585,-0.35629 1.428817,0.52721 -1.900604,0.82688 -2.070471,1.1684 -0.9375,1.88486 0.928531,0.58717 -0.944612,0.87972 -5.694442,0.88936 -3.892969,0.007 -7.478906,-0.36658 -7.96875,-0.83216 z m 10.125,-0.75261 c -1.160156,-0.22346 -3.058594,-0.22346 -4.21875,0 -1.160156,0.22345 -0.210938,0.40628 2.109375,0.40628 2.320312,0 3.269531,-0.18283 2.109375,-0.40628 z m 8.964844,0.0212 c 0.676758,-0.27082 1.485351,-0.23752 1.796875,0.074 0.311523,0.31153 -0.242188,0.5331 -1.230469,0.4924 -1.092134,-0.045 -1.314281,-0.26713 -0.566406,-0.5664 z M 38.4375,256.79229 C 35.085937,256.37228 28.863281,256.27708 24.609375,256.58075 19.131191,256.9718 16.875,256.82176 16.875,256.06642 16.875,255.37109 19.158588,255 23.4375,255 28.525775,255 30,254.69659 30,253.64934 c 0,-1.15693 0.352793,-1.16761 2.459707,-0.0745 1.770988,0.9188 4.818647,1.14403 10.884477,0.80441 5.913002,-0.33107 8.237744,-0.1691 7.797464,0.54329 -0.345018,0.55824 -1.657094,1.01499 -2.915726,1.01499 -1.258633,0 -2.288422,0.42187 -2.288422,0.9375 0,0.51562 -0.316406,0.87978 -0.703125,0.80923 -0.386719,-0.0706 -3.445313,-0.47192 -6.796875,-0.89194 z m 15.761719,0.37979 c 0.676758,-0.27081 1.485351,-0.23751 1.796875,0.074 0.311523,0.31152 -0.242188,0.5331 -1.230469,0.4924 -1.092134,-0.045 -1.314281,-0.26713 -0.566406,-0.5664 z M 127.5,255.41475 c 3.29114,-0.71438 31.83083,-0.96507 30.73534,-0.26997 -0.66225,0.4202 -8.16503,0.72153 -16.67284,0.66962 -8.50781,-0.0519 -14.83594,-0.23176 -14.0625,-0.39965 z m -56.015625,-16.061 c 0.902344,-0.2358 2.378906,-0.2358 3.28125,0 0.902344,0.23581 0.164062,0.42875 -1.640625,0.42875 -1.804688,0 -2.542969,-0.19294 -1.640625,-0.42875 z m 20.571471,-0.45973 c -0.872903,-0.35048 -1.059752,-0.66689 -0.415221,-0.70312 0.644531,-0.0362 1.171875,-0.48778 1.171875,-1.0034 0,-0.55398 -3.375,-0.9375 -8.25,-0.9375 -5.233733,0 -8.667417,-0.41741 -9.391706,-1.14171 -0.798697,-0.79869 -5.713633,-1.15796 -16.359375,-1.19582 -11.971414,-0.0426 -15.906795,-0.3774 -18.448129,-1.56957 -2.435835,-1.14267 -4.972495,-1.39966 -10.3125,-1.04474 -3.895122,0.25888 -8.558603,0.0606 -10.36329,-0.44062 -2.597588,-0.72144 -0.853958,-0.92018 8.368591,-0.95387 9.320008,-0.034 12.124117,0.26819 14.021355,1.51126 2.606045,1.70749 11.676631,2.09276 55.422554,2.35411 26.21532,0.15661 34.88376,-0.19303 34.15171,-1.37751 -0.2818,-0.45597 0.14534,-0.82903 0.94921,-0.82903 0.80387,0 1.46158,-0.58768 1.46158,-1.30595 0,-1.3511 2.70516,-2.86389 3.57168,-1.99737 0.26995,0.26995 -0.001,0.49082 -0.60293,0.49082 -0.60156,0 -1.09375,0.45546 -1.09375,1.01212 0,0.67534 2.10562,0.84092 6.32812,0.49761 5.51523,-0.44842 5.84641,-0.39257 2.57813,0.43477 -7.57833,1.91837 -11.27122,3.08748 -12.14063,3.84351 -0.48984,0.42597 -7.73268,0.77449 -16.09519,0.77449 -8.36252,0 -15.8719,0.25607 -16.687502,0.56905 -2.786306,1.06921 -1.486912,2.14044 2.970202,2.44866 3.79697,0.26256 3.44374,0.37373 -2.39729,0.75449 -3.767715,0.24561 -7.564591,0.1598 -8.437494,-0.19068 z M 97.5,237.1875 c 0,-0.51563 -0.657713,-0.9375 -1.461581,-0.9375 -0.803869,0 -1.200844,0.42187 -0.882169,0.9375 0.318675,0.51562 0.976388,0.9375 1.461581,0.9375 0.485194,0 0.882169,-0.42188 0.882169,-0.9375 z m 10.3125,1.00788 c 0,-0.55434 0.31641,-1.02259 0.70313,-1.04058 0.38671,-0.018 7.24218,-0.16371 15.23437,-0.32382 14.46892,-0.28989 12.41692,0.19176 -7.26562,1.7054 -5.97351,0.45937 -8.67188,0.35326 -8.67188,-0.341 z m -47.050781,-1.6483 c 0.676758,-0.27081 1.485351,-0.23751 1.796875,0.074 0.311523,0.31153 -0.242188,0.5331 -1.230469,0.4924 -1.092134,-0.045 -1.314281,-0.26713 -0.566406,-0.5664 z m 4.628906,-0.91797 c 0.644531,-0.26007 1.699219,-0.26007 2.34375,0 0.644531,0.26007 0.117187,0.47287 -1.171875,0.47287 -1.289063,0 -1.816406,-0.2128 -1.171875,-0.47287 z m 86.484375,-3.2492 c 6.44531,-0.46384 16.35937,-0.99591 22.03125,-1.18237 5.67187,-0.18647 11.50012,-0.81344 12.95166,-1.39328 3.22616,-1.28875 4.39209,-1.33144 4.39209,-0.16082 0,2.00172 -8.14763,2.90882 -29.0625,3.23559 -19.14055,0.29905 -20.49365,0.23357 -10.3125,-0.49912 z m -59.476059,-3.09564 c 1.000895,-0.73741 1.960434,-0.94835 2.132306,-0.46875 0.557344,1.55515 2.031253,0.92169 2.031253,-0.87302 0,-1.39538 -0.513225,-1.64688 -2.561662,-1.2553 -1.408914,0.26933 -3.108622,1.03666 -3.77713,1.70516 -0.668508,0.66851 -1.895261,0.95461 -2.726119,0.63578 -1.34769,-0.51716 -1.325433,-0.71513 0.206315,-1.83517 1.469443,-1.07448 0.03552,-1.26227 -9.946595,-1.30261 -6.414958,-0.0259 -13.351059,-0.18679 -15.413559,-0.35749 -2.0625,-0.1707 -8.192128,-0.60562 -13.621397,-0.96649 -5.429268,-0.36087 -11.335518,-1.03599 -13.125,-1.50025 -2.565602,-0.66562 -2.06415,-0.73778 2.371397,-0.34125 5.719289,0.51131 38.692571,2.17685 44.352203,2.24033 1.836662,0.0206 2.865835,-0.34766 2.522797,-0.90271 -0.318674,-0.51563 -2.558415,-0.94326 -4.977203,-0.9503 -5.301864,-0.0154 -8.616547,-0.81302 -8.616547,-2.07334 0,-0.60575 4.657519,-0.67434 13.359375,-0.19672 24.186065,1.32748 26.094605,1.18487 27.333035,-2.04245 0.48836,-1.27264 0.34946,-1.35655 -0.74374,-0.44927 -0.78855,0.65445 -1.56776,0.75398 -1.88493,0.24078 -0.746,-1.20706 -8.72821,-2.31056 -10.170359,-1.406 -0.64605,0.40521 -1.912912,0.6153 -2.815256,0.46684 -0.902344,-0.14844 -1.640625,0.25913 -1.640625,0.90571 0,0.76785 -0.406463,0.65428 -1.171875,-0.32744 -1.395823,-1.79028 -12.006213,-3.01077 -39.140625,-4.50224 -10.054688,-0.55266 -19.757813,-1.39565 -21.5625,-1.8733 -3.411997,-0.90307 6.514666,-0.54959 18.046875,0.64263 3.70887,0.38343 5.390625,0.22703 5.390625,-0.5013 0,-0.58224 -0.84375,-1.0586 -1.875,-1.0586 -2.308118,0 -2.489145,-1.60841 -0.234375,-2.0824 0.902344,-0.18969 2.484375,0.57343 3.515625,1.6958 1.674132,1.82207 3.431723,2.15381 16.40625,3.09662 7.992187,0.58076 15.691406,1.31245 17.109375,1.62599 1.613564,0.35679 2.578125,0.17844 2.578125,-0.47672 0,-0.63278 -1.875823,-1.04679 -4.742828,-1.04679 -2.781738,0 -4.513509,-0.37104 -4.188227,-0.89737 0.305031,-0.49354 1.701022,-0.86621 3.102203,-0.82813 16.926032,0.45994 41.997262,-0.4244 45.325822,-1.59878 4.51173,-1.59183 4.84443,-1.63544 4.17162,-0.54681 -0.27752,0.44903 -1.80694,1.07688 -3.39872,1.39524 -1.70297,0.34059 -2.64128,0.98795 -2.27979,1.57286 0.42494,0.68757 1.02366,0.65434 1.94197,-0.10779 0.81201,-0.67392 3.15718,-0.92605 6.03836,-0.6492 2.59088,0.24895 4.94452,0.0743 5.2303,-0.38807 0.28577,-0.4624 1.25049,-0.60874 2.14384,-0.3252 0.89333,0.28353 4.09111,-0.33321 7.10617,-1.37054 5.43837,-1.87108 8.72411,-1.89051 3.81098,-0.0225 -6.98667,2.65632 -17.76897,4.72561 -30.0691,5.77069 -8.75157,0.74359 -13.48764,1.5123 -13.27105,2.15405 0.18522,0.54881 -0.30378,1.46976 -1.08667,2.04654 -1.08199,0.79714 1.82175,1.16023 12.10521,1.51367 7.44077,0.25573 14.16147,0.66389 14.93491,0.90702 0.77344,0.24314 1.08722,0.26423 0.69728,0.0469 -2.03643,-1.13509 0.76293,-1.7703 4.62335,-1.04909 2.83151,0.52898 4.75674,0.48669 5.36122,-0.11778 0.51873,-0.51874 1.57222,-0.94315 2.34108,-0.94315 1.04735,0 0.94155,0.34518 -0.42187,1.37643 -1.00089,0.75704 -3.63768,1.38985 -5.85952,1.40625 -2.44793,0.0181 -3.81139,0.39922 -3.46029,0.96732 0.31867,0.51562 -0.0256,0.9375 -0.76498,0.9375 -0.73942,0 -2.72835,0.27678 -4.41985,0.61509 -2.20934,0.44186 -2.88682,0.30985 -2.40561,-0.46875 0.44954,-0.72738 -0.24767,-1.08384 -2.11986,-1.08384 -1.53434,0 -2.93032,0.37319 -3.1022,0.82931 -0.17188,0.45613 -3.33818,0.9954 -7.03624,1.19839 -3.70284,0.20326 -6.49611,7.7e-4 -6.2171,-0.45069 0.27866,-0.45087 -0.24664,-0.67373 -1.16732,-0.49526 -0.92068,0.17847 -1.84955,0.85184 -2.06416,1.49637 -0.28199,0.84693 1.25623,1.20717 5.54732,1.29917 l 5.9375,0.12729 -6.5625,0.78374 c -3.60938,0.43105 -7.19531,0.8621 -7.96875,0.95789 -0.77344,0.0958 -3.51563,0.0414 -6.09375,-0.12081 l -4.6875,-0.29497 4.47613,-0.55584 c 5.30559,-0.65885 5.93141,-2.36912 0.91314,-2.49545 -5.93753,-0.14946 -7.863286,0.52103 -7.229733,2.51717 0.495441,1.56101 0.04228,1.76619 -3.900543,1.76619 -4.091871,0 -4.310488,-0.11097 -2.641303,-1.34073 z M 92.8125,224.0625 c 0,-0.51563 -0.949219,-0.90785 -2.109375,-0.8716 -2.01272,0.0629 -2.023459,0.1028 -0.234375,0.8716 1.03125,0.44315 1.980469,0.83537 2.109375,0.8716 0.128906,0.0362 0.234375,-0.35598 0.234375,-0.8716 z m 16.31393,0.14936 c 0.2679,-0.43347 -2.02751,-0.75396 -5.10091,-0.71221 -3.07341,0.0417 -5.58802,0.39642 -5.58802,0.78814 0,0.97721 10.08233,0.9056 10.68893,-0.0759 z m -11.880333,-0.71577 c -0.311531,-0.31152 -1.120125,-0.34482 -1.796878,-0.074 -0.747872,0.29927 -0.525731,0.52142 0.566409,0.5664 0.988275,0.0407 1.541991,-0.18087 1.230469,-0.49239 z m 22.988283,-0.0952 c -1.16016,-0.22346 -3.0586,-0.22346 -4.21875,0 -1.16016,0.22345 -0.21094,0.40628 2.10937,0.40628 2.32031,0 3.26953,-0.18283 2.10938,-0.40628 z M 112.5,215.15625 c 0,-1.11608 -1.35416,-1.40625 -6.5625,-1.40625 -4.11863,0 -6.5625,0.38124 -6.5625,1.02376 0,0.66068 1.96757,0.91042 5.54793,0.70418 3.05136,-0.17577 5.86386,-0.004 6.25,0.38249 1.02847,1.02847 1.32707,0.87002 1.32707,-0.70418 z m -15,-0.46875 c 0,-0.51563 -0.396975,-0.9375 -0.882169,-0.9375 -0.485193,0 -1.142906,0.42187 -1.461581,0.9375 -0.318675,0.51562 0.07828,0.9375 0.882169,0.9375 0.803868,0 1.461581,-0.42188 1.461581,-0.9375 z m 27.1875,0.0927 4.21875,-0.70576 -3.56801,-0.74516 c -3.99799,-0.83496 -9.82802,-0.15206 -11.3042,1.32412 -1.1492,1.1492 4.16399,1.21243 10.65346,0.1268 z m 3.51562,12.41135 c 0.64454,-0.26007 1.69922,-0.26007 2.34375,0 0.64454,0.26008 0.11719,0.47287 -1.17187,0.47287 -1.28906,0 -1.81641,-0.21279 -1.17188,-0.47287 z m 35.85938,-1.25407 c 0,-0.52185 2.51844,-0.9375 5.68033,-0.9375 3.54816,0 5.46284,0.3519 5.10092,0.9375 -0.31868,0.51562 -2.87483,0.9375 -5.68033,0.9375 -2.80551,0 -5.10092,-0.42188 -5.10092,-0.9375 z M 13.125,224.84616 c 0,-0.43101 4.957031,-0.75035 11.015625,-0.70964 6.058594,0.0407 10.59375,0.22009 10.078125,0.39865 -2.164189,0.74941 -21.09375,1.0285 -21.09375,0.31099 z m 134.14062,-0.18864 c 0.21485,-0.18835 3.76563,-0.61943 7.89063,-0.95795 5.15375,-0.42295 7.06008,-0.3203 6.09375,0.32811 -1.25973,0.84529 -14.9325,1.46109 -13.98438,0.62984 z m 34.6875,0.006 c 1.11978,-0.96568 5.54688,-1.45932 5.54688,-0.61851 0,0.52545 -1.33594,0.95536 -2.96875,0.95536 -1.63281,0 -2.79297,-0.15159 -2.57813,-0.33686 z M 19.21875,221.49352 c -2.578125,-0.1958 -5.109375,-0.77423 -5.625,-1.28538 -1.089146,-1.0797 9.065952,-0.47168 15,0.8981 l 3.75,0.86563 -4.21875,-0.0612 c -2.320313,-0.0337 -6.328125,-0.22138 -8.90625,-0.41718 z m 22.804342,-1.37935 c -1.714263,-0.36689 -7.757467,-1.1394 -13.429342,-1.71667 -5.671875,-0.57729 -10.713281,-1.43726 -11.203125,-1.91105 -0.489844,-0.47379 -2.599219,-0.86721 -4.6875,-0.87425 -4.3693192,-0.0147 -8.015625,-0.84005 -8.015625,-1.81429 0,-1.10667 10.558237,0.0586 13.707869,1.51281 3.358483,1.55069 13.958058,2.73608 35.851411,4.00939 8.437291,0.49071 15.515036,1.06671 15.728323,1.28 0.660586,0.66058 -24.651035,0.22055 -27.952011,-0.48594 z m 90.164408,0.45021 c -1.80469,-0.21206 -3.66671,-0.76204 -4.13783,-1.22218 -0.50402,-0.49228 0.46112,-0.62278 2.34485,-0.3171 2.04985,0.33264 4.97154,-0.15305 8.12222,-1.35022 2.70641,-1.02836 4.91554,-1.59387 4.90915,-1.25669 -0.0152,0.80365 -6.31356,4.87601 -7.24087,4.68177 -0.39395,-0.0825 -2.19283,-0.32353 -3.99752,-0.53558 z m 29.29687,-0.89813 c 0.90235,-0.2358 2.37891,-0.2358 3.28125,0 0.90235,0.23581 0.16407,0.42875 -1.64062,0.42875 -1.80469,0 -2.54297,-0.19294 -1.64063,-0.42875 z m -17.28515,-0.93167 c 0.67675,-0.27081 1.48535,-0.23751 1.79688,0.074 0.31152,0.31153 -0.2422,0.5331 -1.23047,0.4924 -1.09214,-0.045 -1.31428,-0.26713 -0.56641,-0.5664 z m 11.89453,-1.67138 c 5.15625,-0.6272 11.48437,-1.45302 14.0625,-1.83516 3.37554,-0.50033 4.41002,-0.40884 3.69607,0.32688 -0.54527,0.56192 -5.1859,1.42949 -10.3125,1.92794 -13.10473,1.27414 -18.75353,0.95577 -7.44607,-0.41966 z m -135.9375,-8.03674 c -3.881638,-1.92722 -2.509363,-1.79779 5.15625,0.48633 3.728612,1.111 3.891991,1.26394 1.40625,1.3163 -1.546875,0.0326 -4.5,-0.7786 -6.5625,-1.80263 z m 106.39224,0.0793 c 1.28136,-0.98452 2.11452,-2.00526 1.85146,-2.26832 -0.26306,-0.26306 -4.00664,0.30823 -8.31907,1.26952 -5.44403,1.21354 -8.53615,1.48343 -10.11561,0.88292 -2.99223,-1.13765 -5.22224,-1.10163 -4.49652,0.0726 0.31868,0.51563 -0.1032,0.9375 -0.9375,0.9375 -0.8343,0 -1.25618,-0.42187 -0.9375,-0.9375 0.32992,-0.53381 -0.47746,-0.9375 -1.875,-0.9375 -1.34993,0 -2.254969,0.32271 -2.0112,0.71712 0.73508,1.18939 -29.233969,1.31006 -31.445249,0.12662 -1.565222,-0.83768 -1.695223,-1.2086 -0.654582,-1.86765 2.032865,-1.28744 3.6385,-0.99458 3.043805,0.55516 -0.440129,1.14696 0.429598,1.40625 4.716924,1.40625 2.891104,5e-5 5.256552,-0.42183 5.256552,-0.93745 0,-0.51563 1.054687,-0.9375 2.34375,-0.9375 3.321417,0 2.908629,-1.67501 -0.639357,-2.59439 -3.42242,-0.88684 -4.478229,-2.65467 -1.990375,-3.33267 4.938051,-1.34573 6.848482,-1.52797 6.848482,-0.6533 0,0.52545 -1.160156,0.9934 -2.578125,1.03991 -2.448652,0.0803 -2.417745,0.13064 0.615439,1.00232 1.75646,0.50477 4.182242,0.66962 5.390625,0.36633 2.473751,-0.62087 2.457176,-0.48713 2.213614,-17.85945 -0.105074,-7.49443 -0.538921,-10.92195 -1.587633,-12.54276 -1.140385,-1.76248 -1.31881,-3.82711 -0.850694,-9.84375 0.829174,-10.65729 -0.710609,-26.47089 -2.802576,-28.78249 -0.895813,-0.98986 -2.09071,-1.82257 -2.655326,-1.85046 -0.564615,-0.0279 -3.320311,-1.60992 -6.123768,-3.51562 -5.009577,-3.40536 -8.521012,-8.13454 -11.273924,-15.18367 -1.660597,-4.25213 -3.669119,-6.5625 -5.705131,-6.5625 -1.959793,0 -2.767501,-1.83437 -2.767501,-6.28522 0,-2.844249 -0.201282,-3.152311 -1.40625,-2.15228 -0.773438,0.641897 -1.40625,1.72334 -1.40625,2.40322 0,0.67986 -0.346254,1.45012 -0.769453,1.71167 -0.4232,0.26156 -0.652508,-2.35027 -0.509573,-5.804049 0.241635,-5.838722 0.166351,-6.115045 -1.072326,-3.935841 -1.531639,2.694609 -1.625275,2.063916 -0.53281,-3.588852 0.71632,-3.706476 0.420649,-4.784854 -3.416753,-12.461695 C 46.254623,69.371066 45.82479,67.8823 46.383821,64.413305 46.733437,62.243799 47.22765,56.671875 47.482069,52.03125 47.875422,44.856467 48.320591,43.046127 50.4567,39.934522 54.881296,33.489345 58.808519,31.035696 66.181649,30.109893 74.735802,29.035795 80.625,26.123547 80.625,22.967557 c 0,-2.662565 -0.721187,-2.89905 -11.552755,-3.788264 -7.176196,-0.589128 -10.449353,-0.202796 -32.763158,3.867048 -8.096844,1.476793 -16.621587,1.753371 -16.621587,0.539271 0,-0.434163 2.847656,-1.866383 6.328125,-3.18271 3.480469,-1.316328 10.481892,-3.962665 15.558719,-5.880749 C 46.65117,12.60407 52.177352,9.8297334 53.854747,8.3569609 61.906755,1.287204 76.283095,-2.423525 78.967568,1.875 c 0.644026,1.03125 1.659957,1.875 2.257623,1.875 1.880547,0 10.598678,10.303413 14.82025,17.515118 2.228503,3.806959 4.974389,9.966419 6.101969,13.687688 1.12758,3.721269 2.86351,8.570198 3.85762,10.775398 2.01486,4.469513 2.11192,4.899363 1.10435,4.890868 -1.1928,-0.01006 -4.23367,-5.788802 -6.41012,-12.181572 -1.666466,-4.894774 -2.093066,-5.539159 -2.168207,-3.275061 -0.05147,1.550279 0.298875,4.186998 0.7785,5.859375 0.479634,1.672378 0.535228,3.040686 0.123544,3.040686 -0.682416,0 -1.816866,-3.548891 -4.741181,-14.831803 l -1.049826,-4.050553 -2.675181,3.692978 c -3.008442,4.153034 -6.482044,6.872231 -11.29496,8.841893 l -3.265699,1.336471 4.6875,0.586291 c 7.324673,0.916137 26.37132,11.980173 36.05063,20.941501 8.92456,8.262582 22.27709,25.924312 26.85743,35.525019 7.17685,15.043203 8.28105,23.128873 5.34364,39.129663 -0.87564,4.76976 -1.53844,10.04338 -1.4729,11.71916 0.0655,1.67579 -0.21796,3.04688 -0.62998,3.04688 -0.41203,0 -1.92945,4.53516 -3.37206,10.07812 -1.44259,5.54297 -3.39866,11.64896 -4.34681,13.56885 -2.04952,4.15006 -7.7716,10.10303 -9.7112,10.10303 -1.6261,0 -1.68107,-0.35497 -0.4375,-2.82522 0.51562,-1.02426 1.29847,-2.60279 1.73967,-3.50786 0.48178,-0.98833 0.39867,-2.28526 -0.20807,-3.24715 -0.80963,-1.28354 -0.46824,-2.16729 1.7192,-4.45048 1.76687,-1.84422 2.95838,-2.47846 3.37866,-1.79845 0.80728,1.30621 4.62054,-2.26488 4.62054,-4.32709 0,-2.00821 -1.56879,-1.74094 -2.11844,0.36091 -0.34918,1.33529 -1.06326,1.65225 -2.92184,1.29697 -1.8726,-0.35798 -2.45972,-0.0907 -2.45972,1.11982 0,1.26963 -0.55213,1.46876 -2.74005,0.98821 -2.50824,-0.5509 -2.69277,-0.41841 -2.18117,1.56614 0.49886,1.93515 0.3904,2.02978 -1.00996,0.88129 -1.5522,-1.27303 -2.22272,-4.91034 -0.86569,-4.69607 3.40532,0.53768 3.46371,0.24014 1.6101,-8.20478 -0.47636,-2.17026 -0.37785,-2.41684 0.51188,-1.28124 0.91654,1.16983 0.98782,1.09103 0.42402,-0.46875 -0.37276,-1.03125 -0.8848,-2.83045 -1.13788,-3.99823 -0.25307,-1.16778 -0.87682,-2.38076 -1.38613,-2.69553 -0.57357,-0.35449 -0.67115,0.23066 -0.25637,1.53751 0.46813,1.47495 0.34599,1.90979 -0.40589,1.4451 -0.7516,-0.46452 -0.92107,0.13539 -0.5627,1.99197 0.42423,2.19774 0.19204,2.00887 -1.34408,-1.09332 -1.02131,-2.0625 -1.86797,-4.27734 -1.8815,-4.92187 C 121.87219,146.1158 120,145.77196 120,147.07301 c 0,0.45266 0.60193,2.26364 1.33763,4.02442 1.24736,2.98533 1.21696,3.21049 -0.45029,3.33608 -0.98336,0.0741 -2.03207,-0.26035 -2.33046,-0.74316 -0.2984,-0.48282 0.19473,-0.87785 1.09581,-0.87785 1.44586,0 1.40662,-0.21591 -0.33404,-1.83757 -1.08482,-1.01066 -2.63122,-2.77817 -3.43646,-3.92781 -2.71308,-3.87347 -3.15515,-1.45381 -1.99535,10.92163 0.38659,4.125 0.59056,9.1875 0.45327,11.25 -0.36357,5.46173 -0.40309,10.1328 -0.17129,20.24655 l 0.20618,8.99656 11.33403,0.60942 c 6.23372,0.33519 11.75475,0.86945 12.26898,1.18726 0.51421,0.3178 5.85531,0.55702 11.86909,0.53157 6.01378,-0.0254 13.04352,0.32096 15.62165,0.76977 3.41481,0.59446 1.50576,0.70799 -7.03125,0.41814 -10.60705,-0.36014 -28.35149,0.90389 -19.6875,1.40245 2.7418,0.15777 2.97299,0.32264 1.40625,1.00285 -1.38359,0.60068 -0.76933,0.77607 2.34375,0.66921 9.20224,-0.31587 24.64787,0.29961 23.99146,0.95601 -0.38282,0.38283 -7.51954,0.7441 -15.85938,0.80284 -13.66011,0.0962 -15.51468,0.30604 -18.70747,2.11647 -1.94928,1.10531 -4.48053,2.00027 -5.625,1.9888 -2.06456,-0.0207 -2.06261,-0.0349 0.24888,-1.81087 z m -34.907865,-4.43952 c -0.902344,-0.2358 -2.378906,-0.2358 -3.28125,0 -0.902344,0.23581 -0.164063,0.42875 1.640625,0.42875 1.804687,0 2.542969,-0.19294 1.640625,-0.42875 z M 106.40625,204.375 c -1.78909,-0.7688 -1.77834,-0.80873 0.23438,-0.8716 1.22071,-0.0382 2.10937,-0.65834 2.10937,-1.47215 0,-1.03287 -1.18238,-1.44364 -4.45312,-1.54705 l -4.45313,-0.14082 4.21875,-0.56231 4.21875,-0.56232 -0.33519,-11.25 c -0.2381,-7.99099 -0.83708,-12.57689 -2.06766,-15.83036 -1.55079,-4.10008 -1.58937,-4.85706 -0.36793,-7.21907 0.7505,-1.45129 1.36453,-4.49957 1.36453,-6.77396 0,-3.41521 -0.69377,-5.05079 -3.98437,-9.39329 -2.19141,-2.89193 -4.300786,-5.27077 -4.687505,-5.28631 -1.270247,-0.0511 -0.734259,14.5266 0.713344,19.40118 1.038515,3.49706 1.163591,5.43487 0.46875,7.26244 -1.243472,3.27057 -1.213997,27.15539 0.03909,31.66749 0.934947,3.36659 1.143387,3.51284 4.916647,3.44973 3.06089,-0.0512 3.52184,-0.24571 2.06531,-0.8716 z m -5.625,-0.9375 c -0.31868,-0.51563 0.28924,-0.9375 1.35092,-0.9375 1.06168,0 1.93033,0.42187 1.93033,0.9375 0,0.51562 -0.60791,0.9375 -1.35092,0.9375 -0.743,0 -1.61165,-0.42188 -1.93033,-0.9375 z M 112.5,201.97592 c 0,-1.54694 -1.48166,-1.8083 -2.34375,-0.41342 -0.76454,1.23705 0.35645,2.99257 1.47103,2.30371 0.47999,-0.29665 0.87272,-1.14728 0.87272,-1.89029 z m 15.41364,1.42448 c 1.33219,-0.53943 -0.24806,-0.85322 -5.10114,-1.01289 l -7.03125,-0.23135 7.5,-0.5443 7.5,-0.54431 -5.29331,-0.78589 c -6.60503,-0.98064 -11.11294,-0.11189 -11.11294,2.14163 0,1.3906 0.91046,1.65789 5.80427,1.70398 3.19235,0.0301 6.67281,-0.29701 7.73437,-0.72687 z m -30.917546,-2.71852 c 0.769106,-1.24444 -0.503391,-8.49438 -1.490916,-8.49438 -0.449719,0 -0.817678,2.10937 -0.817678,4.6875 0,4.3227 0.985472,5.94774 2.308594,3.80688 z M 112.5,198.75 c 0,-0.51563 -0.65771,-0.9375 -1.46158,-0.9375 -0.80387,0 -1.20085,0.42187 -0.88217,0.9375 0.31868,0.51562 0.97639,0.9375 1.46158,0.9375 0.4852,0 0.88217,-0.42188 0.88217,-0.9375 z m -1.76953,-4.95703 c -0.76563,-0.76563 -1.04297,-0.66071 -1.04297,0.39453 0,1.86362 1.26066,3.12427 1.72657,1.72656 0.19765,-0.59297 -0.10997,-1.54746 -0.6836,-2.12109 z m 0.73426,-8.16797 c -0.0911,-3.60938 -0.49878,-6.5625 -0.90599,-6.5625 -0.40721,0 -0.74971,2.95312 -0.76112,6.5625 -0.0117,3.71316 0.38164,6.5625 0.90599,6.5625 0.53816,0 0.8573,-2.75164 0.76112,-6.5625 z m -16.255896,-4.47866 c -1.2096,-1.2096 -1.504861,0.82906 -0.802518,5.54109 l 0.749934,5.03132 0.286959,-5.02553 c 0.157838,-2.76405 0.05241,-5.26015 -0.234375,-5.54688 z M 95.625,177.65625 c 0,-1.28906 -0.421875,-2.34375 -0.9375,-2.34375 -1.047345,0 -1.285034,3.08996 -0.312497,4.0625 1.033444,1.03344 1.249997,0.73568 1.249997,-1.71875 z m 15.9375,-0.88217 c 0,-0.22738 -0.42187,-0.67415 -0.9375,-0.99283 -0.51562,-0.31868 -0.9375,-0.13264 -0.9375,0.41342 0,0.54605 0.42188,0.99283 0.9375,0.99283 0.51563,0 0.9375,-0.18604 0.9375,-0.41342 z m -15,-4.27408 c 0,-0.51563 -0.421875,-0.9375 -0.9375,-0.9375 -0.515625,0 -0.9375,0.42187 -0.9375,0.9375 0,0.51562 0.421875,0.9375 0.9375,0.9375 0.515625,0 0.9375,-0.42188 0.9375,-0.9375 z m 16.08539,-2.8826 c 0.36565,-1.76613 0.27103,-3.61193 -0.21028,-4.10178 -0.48131,-0.48984 -0.87511,-2.31796 -0.87511,-4.06249 0,-2.14167 -0.38062,-3.03232 -1.17187,-2.74219 -1.22656,0.44974 -1.25698,1.00418 -0.20354,3.71093 0.44631,1.14677 0.18502,1.64063 -0.86804,1.64063 -0.82861,0 -1.50655,0.38737 -1.50655,0.86082 0,0.47346 -0.25607,1.52815 -0.56905,2.34375 -0.40795,1.06308 -0.01,1.48293 1.40625,1.48293 1.08642,0 1.9753,0.40864 1.9753,0.90808 0,0.49944 -0.63281,0.66524 -1.40625,0.36845 -0.87082,-0.33416 -1.40625,0.005 -1.40625,0.88879 0,1.46681 1.63582,2.54136 3.25716,2.13959 0.50236,-0.12449 1.21257,-1.67137 1.57823,-3.43751 z m -16.08539,0.0118 c 0,-0.48358 -0.632813,-0.87923 -1.40625,-0.87923 -0.773438,0 -1.40625,-0.42188 -1.40625,-0.9375 0,-0.51563 0.889481,-0.9375 1.976634,-0.9375 1.687304,0 1.882453,-0.37736 1.33321,-2.57813 -0.353888,-1.41796 -1.223831,-3.22257 -1.933228,-4.01022 -1.429328,-1.58703 -1.824811,-6.32064 -0.918169,-10.98978 0.3987,-2.05327 0.230119,-3.04687 -0.516949,-3.04687 -0.827108,0 -0.812255,-0.35706 0.0585,-1.40625 0.956578,-1.15261 0.89025,-1.40625 -0.367721,-1.40625 -1.355964,0 -1.513245,1.50207 -1.349773,12.89062 0.101767,7.08985 0.286818,13.11484 0.411222,13.38888 0.406091,0.89453 4.118774,0.81542 4.118774,-0.0878 z M 138.28125,159.375 c 0.31868,-0.51563 0.13264,-0.9375 -0.41342,-0.9375 -0.54606,0 -0.99283,0.42187 -0.99283,0.9375 0,0.51562 0.18604,0.9375 0.41342,0.9375 0.22738,0 0.67415,-0.42188 0.99283,-0.9375 z m -27.48911,-5.39063 c 0.092,-1.93359 0.0811,-4.35937 -0.024,-5.39062 -0.10513,-1.03125 -0.20719,-2.60498 -0.22679,-3.49717 -0.0196,-0.89219 -0.41226,-1.85491 -0.87255,-2.13939 -0.4603,-0.28448 -0.59742,-1.14132 -0.30472,-1.9041 0.3713,-0.96756 0.0917,-1.2178 -0.92491,-0.82771 -1.17115,0.44941 -1.26668,1.04945 -0.4868,3.05751 0.53366,1.3741 0.97831,5.13508 0.98813,8.35773 0.019,6.26229 1.57191,8.22782 1.85165,2.34375 z M 132.24141,142.5 c 0.48597,0 0.9335,0.94922 0.99451,2.10937 0.0897,1.70537 0.24799,1.57071 0.82658,-0.70312 l 0.71566,-2.8125 0.11092,2.73438 c 0.061,1.5039 0.40027,2.44502 0.75392,2.09137 0.35365,-0.35365 0.55281,-2.63881 0.44257,-5.07813 -0.13954,-3.08773 -0.7621,-4.908 -2.04925,-5.99164 -1.01685,-0.85609 -1.84882,-2.20229 -1.84882,-2.99156 0,-2.06979 -1.85867,-2.92145 -1.95955,-0.89788 -0.0465,0.93278 -0.48558,0.30502 -0.97573,-1.39501 -0.81764,-2.83589 -3.05419,-4.8258 -4.16992,-3.71009 -0.25401,0.25402 0.16189,3.57567 0.92421,7.38145 0.76231,3.80579 1.5637,7.9743 1.78084,9.26336 0.21715,1.28906 0.45226,-0.0571 0.52248,-2.99154 0.21943,-9.17018 1.98663,-7.34864 2.16646,2.23308 0.0901,4.79997 0.32528,6.93424 0.52266,4.74283 0.19737,-2.1914 0.75647,-3.98437 1.24246,-3.98437 z m 1.03161,-4.6875 c 0,-1.28906 0.2128,-1.81641 0.47287,-1.17188 0.26007,0.64454 0.26007,1.69922 0,2.34375 -0.26007,0.64454 -0.47287,0.11719 -0.47287,-1.17187 z m -27.61412,7.03125 c -0.0793,-2.79715 -0.41954,-3.28125 -2.30628,-3.28125 -1.50529,0 -1.99755,-0.37486 -1.53889,-1.17188 0.37091,-0.64453 0.34343,-0.87341 -0.061,-0.50861 -0.40449,0.36479 -1.4905,-0.26802 -2.413353,-1.40625 -0.922856,-1.13824 -1.94251,-1.80608 -2.2659,-1.48411 -0.842766,0.83908 4.085823,6.44585 5.666163,6.44585 0.72761,0 1.32292,0.77344 1.32292,1.71875 0,1.47543 0.73928,2.96875 1.46971,2.96875 0.12084,0 0.17785,-1.47656 0.12669,-3.28125 z m 12.1152,-2.84343 c -0.29027,-0.75643 -0.92318,-1.37532 -1.40647,-1.37532 -0.49125,0 -0.40088,1.01996 0.20495,2.3131 1.10852,2.36617 2.15573,1.54884 1.20152,-0.93778 z m 6.24372,1.42257 c -0.46468,-1.77692 -2.14282,-3.59605 -2.14282,-2.32284 0,0.79719 1.85579,4.21245 2.28896,4.21245 0.1914,0 0.12564,-0.85032 -0.14614,-1.88961 z M 94.537941,139.6988 c 0.188362,-1.28978 -0.291957,-2.5276 -1.171877,-3.02003 -0.820085,-0.45894 -1.491064,-1.44629 -1.491064,-2.1941 0,-0.74782 -0.348809,-1.35967 -0.775132,-1.35967 -0.426322,0 -0.589377,1.26562 -0.362344,2.8125 0.227033,1.54687 0.838436,2.8125 1.358674,2.8125 0.587363,0 0.550114,0.47688 -0.09827,1.25813 -0.574287,0.69197 -0.757779,1.54452 -0.407761,1.89453 1.139402,1.1394 2.621319,0.0315 2.947776,-2.20386 z m 0.841528,-5.34613 c -0.87166,-0.87164 -1.899059,-1.27058 -2.283122,-0.88651 -0.384063,0.38405 -0.0777,1.09077 0.680803,1.57046 2.282409,1.44344 3.296738,1.01048 1.602319,-0.68394 z m 2.261156,-1.96204 c -0.592969,-0.19766 -1.064091,-1.06251 -1.046934,-1.92188 0.02475,-1.24059 0.415884,-1.10057 1.898437,0.67968 2.450342,2.94235 3.289442,1.97391 1.420753,-1.63975 -1.874128,-3.62415 -1.875618,-5.22856 -0.0019,-1.77431 0.769264,1.41797 1.715524,2.57813 2.102804,2.57813 1.29516,0 0.52024,-4.62544 -1.06915,-6.3817 -1.946722,-2.15111 -2.200044,-4.68338 -0.31174,-3.11623 0.69197,0.57429 1.60336,0.73141 2.0253,0.34917 0.42195,-0.38224 0.46909,-0.17637 0.10476,0.45751 -0.36432,0.63388 -0.1314,2.11044 0.51763,3.28125 0.64901,1.17081 1.13078,2.33969 1.07059,2.5975 -0.0602,0.25781 0.56331,1.08774 1.38553,1.84429 1.33753,1.23067 1.40775,1.18131 0.66685,-0.46875 -0.45548,-1.01436 -0.91516,-3.53179 -1.02153,-5.59429 -0.10637,-2.0625 -0.61776,-3.65787 -1.13641,-3.54527 -0.51865,0.1126 -1.1624,-0.36699 -1.43054,-1.06576 -0.34374,-0.8958 0.075,-1.12339 1.41994,-0.77168 1.13267,0.29619 -0.99024,-2.3895 -5.226396,-6.61194 -3.92341,-3.91091 -7.133644,-7.60789 -7.133644,-8.21553 0,-0.60764 -1.262652,-2.54287 -2.805894,-4.300533 -1.998429,-2.276081 -2.765049,-2.716378 -2.663959,-1.530009 0.07807,0.916144 0.07509,2.427928 -0.0066,3.359502 -0.260506,2.97052 -4.026082,-0.5969 -5.933168,-5.62093 -1.746628,-4.601202 -1.030438,-7.481622 1.284584,-5.1666 0.61875,0.61875 1.738822,1.125 2.489051,1.125 1.061656,0 0.969533,-0.435938 -0.415558,-1.966446 -0.990385,-1.094363 -1.648715,-2.965299 -1.484458,-4.21875 C 82.501368,83.513537 82.227255,82.5 81.729894,82.5 c -0.497359,0 -1.178519,-0.714628 -1.513687,-1.588062 -0.532862,-1.388616 -0.368124,-1.369715 1.311696,0.150502 1.0566,0.956211 2.158674,1.500983 2.449052,1.210605 0.635156,-0.635156 -1.628896,-4.460545 -2.639968,-4.460545 -0.391593,0 -0.711987,-0.632813 -0.711987,-1.40625 0,-1.634172 1.68503,-1.788505 5.148796,-0.471584 1.633936,0.621221 2.264638,0.621221 1.880703,0 C 87.336788,75.4206 86.493826,75 85.78125,75 c -0.712576,0 -1.600635,-0.493567 -1.973464,-1.096818 -0.455793,-0.737488 -0.166784,-0.900695 0.882172,-0.498173 0.858023,0.329254 1.560042,0.235146 1.560042,-0.20913 0,-1.280546 -2.653018,-1.955575 -3.046494,-0.775145 -0.461916,1.385746 -6.123597,-2.914972 -9.052367,-6.876347 -1.219707,-1.649742 -1.738622,-2.703476 -1.153144,-2.34163 0.585478,0.361845 1.064505,0.255041 1.064505,-0.237342 0,-1.000419 6.129241,-0.798533 8.671875,0.285634 0.995755,0.424586 1.640625,0.291633 1.640625,-0.338247 0,-0.570791 -0.376739,-1.037802 -0.837198,-1.037802 -0.460459,0 -1.116695,-0.728356 -1.458301,-1.618569 -0.451369,-1.17625 0.03362,-1.003492 1.774698,0.632169 3.205147,3.01108 3.028238,4.159762 -0.531014,3.447912 -2.6842,-0.53684 -2.820198,-0.449413 -1.640625,1.054688 0.707405,0.902027 1.647637,1.903722 2.089405,2.225987 0.441768,0.322266 0.33332,0.876349 -0.240996,1.231296 -0.574317,0.354947 -1.297305,-0.01419 -1.606643,-0.820312 C 81.341231,66.50865 78.75,65.958889 78.75,67.354699 c 0,2.207058 3.391084,3.688515 7.03125,3.071729 3.709415,-0.62852 3.746633,-0.675697 3.438896,-4.359037 C 89.049038,64.019389 88.114048,60.972656 87.142388,59.296875 86.170729,57.621094 85.789583,56.25 86.295397,56.25 c 0.505815,0 1.755634,1.371094 2.777378,3.046875 1.117015,1.832038 1.859113,2.432263 1.861221,1.505395 0.002,-0.847813 -1.220443,-2.851719 -2.71638,-4.453125 -1.495936,-1.601404 -2.339686,-2.911645 -1.875,-2.911645 1.008859,0 3.954005,2.846819 5.467377,5.28484 0.90518,1.458237 0.992695,1.204974 0.530359,-1.53484 -0.530295,-3.142549 -0.489487,-3.201992 0.965418,-1.40625 3.214064,3.967011 3.305227,4.82313 0.89228,8.378816 -2.722081,4.011206 -2.998611,8.700585 -0.867232,14.70644 0.800698,2.256234 1.706726,6.752553 2.013391,9.991819 0.306657,3.239266 0.917166,6.111822 1.356675,6.383453 0.439519,0.271631 0.799116,1.360763 0.799116,2.420278 0,1.97671 2.93988,7.989714 5.79663,11.855954 1.6045,2.17149 1.60603,2.1697 1.19943,-1.40625 -0.33374,-2.93505 -0.25736,-3.15801 0.42371,-1.23676 0.45695,1.28906 0.88226,3.39844 0.94513,4.6875 0.0628,1.28906 0.93344,3.39844 1.93462,4.6875 l 1.82035,2.34375 -0.44426,-3.75 -0.44427,-3.75 1.18121,3.36065 c 1.3115,3.73136 5.32366,9.47493 5.37025,7.68774 0.0163,-0.62651 -0.6356,-3.0987 -1.44874,-5.49375 -0.81314,-2.39505 -1.63149,-6.1012 -1.81856,-8.23589 -0.18707,-2.13469 -0.60082,-6.83438 -0.91944,-10.44375 -0.41323,-4.681027 -0.29913,-6.159327 0.39796,-5.15625 0.53749,0.773437 0.98373,2.852859 0.99163,4.620937 0.0141,3.171093 1.33809,8.363553 2.94194,11.538213 1.00691,1.99311 1.03729,2.62478 0.11928,2.47983 -1.77023,-0.27951 -1.80057,0.45121 -0.22837,5.50164 1.1652,3.74304 1.38564,5.7488 0.72126,6.56251 -0.66119,0.80978 -0.6317,1.17187 0.0954,1.17187 0.57876,0 1.05229,0.70313 1.05229,1.5625 0,0.85937 0.26639,1.29611 0.59197,0.97052 0.32559,-0.32558 0.5755,-2.82168 0.55535,-5.54687 -0.032,-4.33039 0.068,-4.60175 0.79304,-2.15303 0.45631,1.54103 1.10384,5.22534 1.43896,8.18736 0.56717,5.01313 2.42106,8.36665 3.84053,6.94718 0.33661,-0.33662 -0.20093,-1.27178 -1.19454,-2.07812 -0.99361,-0.80634 -1.27922,-1.19897 -0.63468,-0.87248 0.83106,0.42096 1.17187,-0.39393 1.17187,-2.80199 0,-3.68848 -4.471,-13.83453 -5.74846,-13.04502 -0.4322,0.26712 -0.5388,-0.7494 -0.2369,-2.25891 0.30191,-1.50952 0.0834,-3.61426 -0.4854,-4.67721 -0.69017,-1.2896 -0.71819,-2.12801 -0.0842,-2.51983 0.60337,-0.3729 0.43323,-1.3251 -0.46622,-2.60924 -0.77896,-1.11213 -1.37207,-3.29928 -1.31801,-4.860338 0.0953,-2.752613 0.1328,-2.726756 1.24104,0.85665 0.6285,2.032218 1.63896,3.860348 2.24544,4.062508 0.6065,0.20216 1.10273,1.53916 1.10273,2.9711 0,6.39159 1.23739,11.39725 3.05827,12.37175 1.34761,0.72122 1.67846,0.70659 1.20873,-0.0534 -0.35572,-0.57556 -0.81416,-2.19969 -1.01875,-3.60916 -0.40907,-2.81819 -0.181,-2.41614 2.80087,4.93735 l 1.52065,3.75 -0.48392,-5.15625 c -1.47912,-15.76027 -1.68492,-24.125861 -0.60986,-24.790296 0.82036,-0.507009 0.9882,0.362157 0.63531,3.289885 -0.26377,2.188415 -0.19431,4.440541 0.15438,5.004731 0.34869,0.56419 0.51665,2.14437 0.37325,3.51152 -0.14341,1.36715 0.23374,2.79132 0.8381,3.16484 0.76384,0.47208 0.91369,0.0958 0.49152,-1.23438 -0.33403,-1.05243 -0.16829,-2.18484 0.36831,-2.51648 1.08964,-0.67344 1.32683,0.90617 1.0171,6.7733 -0.11568,2.19141 0.19561,3.98438 0.69178,3.98438 0.49617,0 1.18096,1.74382 1.52178,3.87515 1.22246,7.64485 1.59177,2.68508 0.50823,-6.82532 -1.32304,-11.61249 -1.74504,-13.27619 -2.70994,-10.68362 -0.42875,1.152 -0.90869,-1.09258 -1.28949,-6.030753 -0.33361,-4.326133 -1.03569,-8.294832 -1.56019,-8.819328 -0.64655,-0.646536 -0.95367,-0.03781 -0.95367,1.890091 0,1.851638 -0.47152,2.84375 -1.35157,2.84375 -0.96984,0 -1.20794,-0.71808 -0.84304,-2.542549 0.27967,-1.398404 0.0625,-2.818164 -0.4825,-3.155024 -0.54505,-0.336861 -0.75428,-1.229353 -0.46496,-1.983315 0.28932,-0.753964 0.90371,-1.137431 1.3653,-0.852149 1.30327,0.80546 0.9881,-1.184203 -0.40885,-2.581157 -0.68647,-0.686469 -1.53826,-2.404102 -1.89286,-3.816965 C 122.12941,76.155979 121.3803,75 120.81934,75 c -0.56097,0 -0.77711,0.632812 -0.48031,1.40625 0.29679,0.773437 0.16614,1.40625 -0.29033,1.40625 -0.45647,0 -1.04274,-0.527344 -1.30281,-1.171875 -0.26007,-0.644531 -0.50617,-0.03662 -0.54687,1.350922 -0.0817,2.785663 1.74485,4.700201 1.89443,1.985656 0.25973,-4.713562 1.60531,3.880175 1.6881,10.78125 0.0592,4.932547 0.43732,7.577188 1.03095,7.210297 0.51563,-0.318675 0.9375,0.07828 0.9375,0.882169 0,0.803868 -0.52734,1.455121 -1.17187,1.447231 -1.90515,-0.0234 -3.39193,-1.318484 -3.22791,-2.811828 0.0841,-0.765919 -0.1975,-3.493256 -0.62583,-6.06076 -0.68602,-4.112207 -0.92237,-4.471812 -1.98443,-3.01935 -1.05774,1.446536 -1.21205,1.186057 -1.25773,-2.123005 -0.0286,-2.074513 -0.31436,-4.196273 -0.63496,-4.715024 -0.89982,-1.455929 -2.1725,-1.118646 -2.63168,0.697442 -0.22815,0.902344 -0.26991,0.164062 -0.0928,-1.640625 0.1771,-1.804688 -0.31761,-5.136048 -1.09936,-7.403022 -0.78175,-2.266976 -1.50762,-6.169164 -1.61303,-8.67153 -0.12268,-2.912368 -0.61339,-4.549882 -1.36352,-4.550103 -0.64454,-1.89e-4 -1.20519,0.526999 -1.2459,1.17153 -0.0592,0.9375 -0.16858,0.9375 -0.54687,0 C 105.99403,60.527344 105.23477,60 104.56686,60 c -0.66792,0 -1.74423,-1.279152 -2.39182,-2.842561 -2.11591,-5.10826 -2.182893,-2.03448 -0.0813,3.729423 1.94408,5.331825 1.96808,5.742577 0.46923,8.030129 -1.09985,1.678571 -1.76727,5.46027 -2.19729,12.450066 -0.513353,8.344449 -0.746181,9.443963 -1.379191,6.513213 -0.418875,-1.939289 -1.135631,-3.757156 -1.592803,-4.039703 -0.457172,-0.282549 -0.771356,-2.281795 -0.698184,-4.44277 l 0.133031,-3.929047 0.626391,3.75 0.62639,3.75 0.716625,-3.75 c 0.394144,-2.0625 1.364171,-5.92797 2.155631,-8.589933 1.3141,-4.419813 1.30203,-5.252343 -0.13905,-9.59104 -0.867937,-2.613109 -2.411521,-5.708576 -3.430181,-6.878817 l -1.852106,-2.12771 1.452628,3.000319 c 0.798938,1.650175 1.452619,3.321739 1.452619,3.714587 0,0.858849 -5.212347,-5.04044 -6.67984,-7.560184 -0.895863,-1.538233 -0.798496,-1.690763 0.70982,-1.111967 1.223545,0.469518 0.91802,-0.195613 -1.018159,-2.216549 -1.521447,-1.588048 -4.350579,-3.313971 -6.286961,-3.835385 -1.936382,-0.521413 -3.774342,-1.358434 -4.084355,-1.860048 -0.642598,-1.039745 -6.266877,-1.202373 -10.727756,-0.310198 -4.28949,0.857898 -6.185352,7.230834 -2.031711,6.829595 3.269521,-0.315833 3.993442,0.110317 3.699791,2.177955 -0.247037,1.739418 -0.84479,2.083953 -3.408193,1.964427 C 60.171975,52.43035 59.427806,42.627325 67.568376,39.100569 69.600344,38.220257 72.095182,37.5 73.11246,37.5 c 3.031994,0 9.673044,-2.924178 12.440348,-5.477716 2.635751,-2.432149 4.432584,-7.093179 4.441964,-11.52257 C 90.004485,15.912748 78.395176,7.5717615 71.929921,7.5205894 70.007651,7.5053747 69.095978,8.1118201 68.4375,9.84375 c -0.800814,2.106302 -1.41136,2.34375 -6.026434,2.34375 -2.824438,0 -6.281846,0.522382 -7.683129,1.16085 -1.753608,0.798997 -2.65206,0.848031 -2.882303,0.157303 -0.307234,-0.921705 -3.490395,0.02425 -19.78707,5.880238 -5.561239,1.998356 -4.307044,2.599614 1.825044,0.874922 2.762453,-0.776959 8.819517,-2.105717 13.460142,-2.952797 4.640625,-0.847079 9.558892,-1.958978 10.929481,-2.470886 1.867976,-0.697679 3.041751,-0.582108 4.6875,0.461538 2.578399,1.635081 6.046571,2.371323 12.508019,2.655267 5.915314,0.259945 8.90625,2.074703 8.90625,5.403887 0,3.060305 -1.549671,4.767178 -4.328125,4.767178 -1.142968,0 -2.21875,0.322509 -2.390625,0.716687 -0.373193,0.85588 -10.103092,3.970813 -12.403352,3.970813 -0.887456,0 -1.377137,0.382532 -1.088183,0.85007 0.288955,0.467538 -0.258152,0.645174 -1.215792,0.394745 -1.351529,-0.353433 -2.243434,0.60649 -3.985668,4.289617 -1.234478,2.609718 -2.771849,4.752395 -3.41638,4.761504 -1.618598,0.02288 -1.471672,-2.317542 0.234375,-3.733436 1.566796,-1.300325 1.86379,-2.8125 0.552381,-2.8125 -1.989288,0 -5.072912,8.773425 -5.155976,14.669613 -0.04614,3.275786 0.183297,5.955842 0.509878,5.95568 0.32658,-1.61e-4 0.841677,0.737988 1.144657,1.640332 0.302981,0.902344 1.090466,2.433146 1.749967,3.401784 0.953049,1.399783 0.958965,1.84853 0.02883,2.186963 -1.298387,0.472422 -0.647543,4.784846 0.960532,6.364378 0.644941,0.633493 0.739683,0.329487 0.292168,-0.9375 -0.527179,-1.492529 -0.424271,-1.638766 0.504492,-0.716903 0.641722,0.636954 1.204263,3.459658 1.250093,6.272675 0.04583,2.813017 0.389529,5.420779 0.763777,5.795027 C 58.756298,81.568797 59.0625,80.75 59.0625,79.375 c 0,-1.486564 0.518426,-2.5 1.278883,-2.5 1.814423,0 4.329164,7.18674 4.439567,12.687593 0.0514,2.560887 0.43122,5.710844 0.84405,6.999907 0.705701,2.203556 0.756189,2.158191 0.84405,-0.758456 0.12317,-4.088796 1.564787,-3.079786 2.316533,1.621378 0.992819,6.208748 2.283397,5.185138 1.982812,-1.572656 l -0.281181,-6.321516 1.432379,4.090456 c 1.418188,4.049931 3.412967,3.946263 2.349072,-0.122084 -0.347506,-1.328863 -0.157856,-1.705422 0.617559,-1.226189 0.723156,0.446934 0.925224,1.991376 0.571149,4.365351 -0.340872,2.285438 -0.176546,3.673716 0.434848,3.673716 0.540528,0 0.982779,-1.054688 0.982779,-2.34375 0,-1.289063 0.3375,-2.34375 0.75,-2.34375 1.275697,0 3.003055,2.1753 2.940576,3.703125 -0.03412,0.834425 -0.494085,0.455222 -1.0803,-0.890625 -0.816328,-1.874147 -1.098063,-2.024869 -1.406105,-0.752259 -0.211877,0.875325 0.06332,2.429619 0.61155,3.453989 0.548228,1.02438 0.979888,3.05039 0.959243,4.50226 l -0.03754,2.63976 -1.398656,-2.57812 c -1.696987,-3.12804 -2.480604,-3.2947 -2.203974,-0.46875 0.113568,1.16015 -0.114733,2.85395 -0.507335,3.764 -0.392602,0.91005 -0.484669,2.53091 -0.204595,3.60192 0.48903,1.87005 0.437221,1.88213 -1.30632,0.30424 -2.060374,-1.86461 -2.260907,-1.77116 -3.155249,1.47046 -0.438183,1.58823 -0.362114,1.93327 0.235979,1.07036 0.654838,-0.94477 1.327391,-0.10874 2.606165,3.23968 1.615366,4.22978 6.250075,9.63743 8.352805,9.74582 0.515625,0.0265 1.992188,0.87332 3.28125,1.88164 2.556626,1.99982 4.81422,2.56422 3,0.75 -1.642968,-1.64297 -1.374327,-2.65959 0.515625,-1.95129 1.491455,0.55894 1.512765,0.44972 0.234375,-1.20131 -1.299332,-1.67807 -1.282296,-1.71898 0.224053,-0.53805 0.896667,0.70296 1.399112,1.65218 1.116547,2.10938 -0.282566,0.4572 0.517309,0.83127 1.7775,0.83127 1.46088,0 2.898916,0.9274 3.967966,2.55897 1.20255,1.83534 1.803037,2.17998 2.123447,1.21875 0.2457,-0.73712 -0.03844,-1.50194 -0.631388,-1.69959 z M 123.103,106.40625 c 0.006,-3.09375 0.18028,-4.24635 0.38893,-2.56133 0.20865,1.68501 0.20435,4.21626 -0.01,5.625 -0.21392,1.40873 -0.38463,0.0301 -0.37937,-3.06367 z M 107.8125,105 c -1.03125,-1.03125 -1.875,-2.89956 -1.875,-4.15178 0,-1.252242 -0.63281,-2.909601 -1.40625,-3.683039 -0.89992,-0.899925 -1.4037,-3.202509 -1.39917,-6.395091 0.008,-5.931248 1.66852,-16.865099 2.72224,-17.929421 0.41008,-0.414194 0.20627,2.116849 -0.45289,5.624539 -1.25399,6.672972 -0.87891,11.191242 1.09271,13.162861 0.92872,0.928718 1.26389,0.929574 1.63777,0.0042 0.2768,-0.685145 0.50049,-0.488983 0.54407,0.477121 0.0407,0.902344 -0.39951,1.640625 -0.97827,1.640625 -0.71962,0 -0.67739,0.451734 0.1336,1.428909 0.65223,0.785897 0.95971,1.655063 0.68329,1.931484 -0.27642,0.276432 0.0472,2.586544 0.71906,5.133603 0.67189,2.54702 1.04888,4.63097 0.83774,4.63097 -0.21115,0 -1.22765,-0.84375 -2.2589,-1.875 z m -25.78125,-2.8125 c -0.318674,-0.51562 -0.132634,-0.9375 0.413422,-0.9375 0.546055,0 0.992828,0.42188 0.992828,0.9375 0,0.51563 -0.186039,0.9375 -0.413422,0.9375 -0.227382,0 -0.674154,-0.42187 -0.992828,-0.9375 z m 16.352841,-5.028703 c -0.618957,-2.765785 -0.893457,-5.613444 -0.609994,-6.328125 0.283453,-0.714683 0.548681,-0.192307 0.589387,1.160834 0.04069,1.353142 0.688116,4.200794 1.438678,6.328122 0.750558,2.127332 0.991758,3.867872 0.535988,3.867872 -0.455775,0 -1.335103,-2.262919 -1.954059,-5.028703 z M 108.76435,81.484375 c 0.008,-1.761719 0.40084,-3.814011 0.8732,-4.56065 0.55561,-0.878233 0.6705,0.114761 0.32541,2.8125 -0.66223,5.176822 -1.2176,5.986837 -1.19861,1.74815 z m -42.127837,0.46875 c 0.04498,-1.092134 0.267132,-1.314281 0.566406,-0.566406 0.270817,0.676758 0.23751,1.485351 -0.07401,1.796875 -0.311524,0.311523 -0.533101,-0.242188 -0.492394,-1.230469 z m 2.695515,-1.408418 c -0.575543,-1.075412 -0.869853,-2.131883 -0.654023,-2.347712 0.215831,-0.21583 0.873779,0.664052 1.462108,1.955293 1.291942,2.835503 0.662898,3.140976 -0.808085,0.392419 z m 4.610889,-6.247832 c -1.166129,-1.486927 -1.132969,-1.520087 0.353958,-0.353958 0.902344,0.707666 1.640625,1.445948 1.640625,1.640625 0,0.771595 -0.769862,0.274972 -1.994583,-1.286667 z M 74.210738,71.25 c -2.207488,-2.985788 -1.41244,-3.946189 0.970113,-1.171875 2.099734,2.444991 2.843771,3.984375 1.925782,3.984375 -0.449088,0 -1.75224,-1.265625 -2.895895,-2.8125 z m -9.80767,-0.976284 C 63.528256,69.252008 62.8125,68.04415 62.8125,67.589586 c 0,-0.454565 -0.573113,-1.046406 -1.273584,-1.315202 -0.700471,-0.268797 -1.605724,-2.317839 -2.011672,-4.553427 -0.730766,-4.024384 -0.744933,-4.036807 -1.427996,-1.252207 -0.37945,1.546875 -0.739822,2.074219 -0.800828,1.171875 C 57.237414,60.738281 56.765625,60 56.25,60 55.734375,60 55.368037,58.207031 55.435913,56.015625 L 55.559327,52.03125 56.25,55.3125 l 0.690673,3.28125 0.232164,-2.8125 c 0.141949,-1.719605 0.398768,-2.174977 0.660906,-1.171875 0.235807,0.902344 0.778411,1.640625 1.205787,1.640625 1.053901,0 3.145265,5.672812 2.88917,7.836854 -0.123592,1.04436 0.200108,1.49194 0.807509,1.116547 0.601343,-0.371651 1.013791,0.158772 1.013791,1.303771 0,1.06168 0.376739,1.930328 0.837198,1.930328 0.848509,0 2.276475,2.823828 1.712938,3.387365 -0.168575,0.168574 -1.022256,-0.529443 -1.897068,-1.551149 z M 95.773022,67.5 c 0,-1.289063 0.212794,-1.816406 0.472865,-1.171875 0.260072,0.644531 0.260072,1.699219 0,2.34375 C 95.985816,69.316406 95.773022,68.789062 95.773022,67.5 Z M 53.511513,52.890625 c 0.04498,-1.092134 0.267132,-1.314281 0.566406,-0.566406 0.270817,0.676758 0.23751,1.485351 -0.07402,1.796875 -0.311524,0.311523 -0.533101,-0.242188 -0.492394,-1.230469 z M 87.421875,52.162582 C 86.261719,51.587998 85.3125,50.796048 85.3125,50.402692 c 0,-1.242142 1.589761,-0.779773 3.880515,1.128618 2.402779,2.001716 1.584697,2.293298 -1.77114,0.631273 z M 54.634588,50.435001 C 53.513904,49.045786 54.693921,45 56.21979,45 c 1.15052,0 1.264696,3.705311 0.167475,5.435001 -0.632232,0.996668 -0.948662,0.996668 -1.752677,0 z M 86.5625,47.394388 c 0,-1.024024 0.420415,-1.130614 1.71875,-0.435766 C 89.226562,47.464538 90,48.074564 90,48.314235 90,48.553906 89.226562,48.75 88.28125,48.75 87.335937,48.75 86.5625,48.139974 86.5625,47.394388 Z M 67.03125,45.9375 C 67.349924,45.421875 67.796696,45 68.024078,45 c 0.227383,0 0.413422,0.421875 0.413422,0.9375 0,0.515625 -0.446773,0.9375 -0.992828,0.9375 -0.546056,0 -0.732096,-0.421875 -0.413422,-0.9375 z M 82.114949,17.010428 c -0.272639,-0.441139 0.546214,-0.602896 1.819672,-0.359459 1.273458,0.243437 2.315379,0.60437 2.315379,0.802072 0,0.725391 -3.654976,0.334165 -4.135051,-0.442613 z m -1.66573,-3.588347 c 0.676758,-0.270817 1.485351,-0.23751 1.796875,0.07401 0.311523,0.311524 -0.242188,0.533101 -1.230469,0.492394 -1.092134,-0.04498 -1.314281,-0.267132 -0.566406,-0.566407 z M 137.33152,128.31581 c -0.51812,-5.1593 -0.40997,-6.5227 0.47405,-5.97634 0.79765,0.49298 0.98875,0.1742 0.62951,-1.05019 -0.28367,-0.96692 -0.82945,-3.8674 -1.21283,-6.44553 l -0.69706,-4.6875 -0.7581,4.21875 c -0.4252,2.36617 -0.3484,7.50141 0.1749,11.69416 0.51316,4.11147 0.93301,7.80288 0.93301,8.20312 0,0.40024 0.25375,0.72772 0.5639,0.72772 0.31014,0 0.26182,-3.00788 -0.10738,-6.68419 z m 2.06816,0.37391 c -0.2377,-0.91216 -0.44781,-0.39284 -0.46691,1.15403 -0.0191,1.54688 0.17536,2.29318 0.43217,1.65847 0.2568,-0.63472 0.27243,-1.90035 0.0348,-2.8125 z m -5.63426,0.5095 c -0.29927,-0.74787 -0.52142,-0.52573 -0.5664,0.56641 -0.0407,0.98827 0.18086,1.54199 0.49239,1.23047 0.31152,-0.31153 0.34482,-1.12013 0.074,-1.79688 z m 8.66868,-4.74609 c 0.0362,-0.38672 -0.35598,-0.70313 -0.8716,-0.70313 -0.51563,0 -0.90785,1.16016 -0.8716,2.57813 0.0584,2.28453 0.15764,2.3646 0.8716,0.70312 0.44315,-1.03125 0.83537,-2.19141 0.8716,-2.57812 z m -12.78198,-9.84375 c -0.57413,-3.72051 -0.93941,-4.57209 -1.65448,-3.85703 -0.69974,0.69975 0.60457,7.37265 1.44108,7.37265 0.41575,0 0.51177,-1.58203 0.2134,-3.51562 z m 13.3151,-3.69616 c -0.83824,-1.44759 -1.22661,-1.78822 -0.86305,-0.75697 0.36355,1.03125 0.90197,3.14063 1.19646,4.6875 0.44582,2.34167 0.5903,2.46839 0.86307,0.75697 0.18017,-1.13055 -0.35823,-3.23993 -1.19648,-4.6875 z m -69.201801,-3.2765 c -0.299274,-0.74787 -0.521421,-0.52573 -0.566406,0.56641 -0.04071,0.98827 0.18087,1.54199 0.492394,1.23047 0.311522,-0.31153 0.344829,-1.12013 0.07402,-1.79688 z m 64.159191,-5.94523 c -0.58152,-2.106068 -0.51137,-3.423574 0.22205,-4.170743 0.80688,-0.822 0.75538,-1.017628 -0.2082,-0.790838 -0.7765,0.182766 -1.86721,-1.266468 -2.77186,-3.683034 -0.82037,-2.191406 -1.78574,-3.984375 -2.14527,-3.984375 -0.35953,0 0.14952,2.1139 1.13124,4.697559 0.98171,2.583657 1.79069,6.064125 1.79773,7.734371 0.007,1.67025 0.28663,4.0604 0.62131,5.31144 l 0.6085,2.27462 0.79727,-2.15522 c 0.44846,-1.21233 0.42538,-3.50206 -0.0528,-5.23378 z M 67.5,107.39908 c 0,-0.22738 -0.421875,-0.67415 -0.9375,-0.99283 -0.515625,-0.31868 -0.9375,-0.13264 -0.9375,0.41342 0,0.54605 0.421875,0.99283 0.9375,0.99283 0.515625,0 0.9375,-0.18604 0.9375,-0.41342 z m 73.21292,-5.49866 c -1.22432,-1.22432 -1.39462,0.13252 -0.34999,2.78853 0.65145,1.65633 0.68784,1.65553 1.02542,-0.0229 0.19249,-0.95711 -0.11145,-2.20164 -0.67543,-2.76562 z m -9.2852,-11.483541 c -2.01774,-6.111472 -4.16109,-11.275919 -4.76299,-11.476551 -1.00948,-0.336493 0.0124,3.252216 2.74866,9.653422 0.44082,1.03125 1.29218,4.40625 1.89191,7.5 1.26992,6.55096 1.71328,7.51267 2.91119,6.31476 0.54815,-0.54815 -0.50323,-5.069048 -2.78877,-11.991631 z M 63.173697,89.684357 c 0.203402,-5.560498 -0.986588,-9.186217 -2.32261,-7.076638 -1.186764,1.873901 -1.03891,6.454781 0.208337,6.454781 0.707599,0 0.894647,1.461907 0.563242,4.402113 -0.36251,3.216181 -0.244273,3.951978 0.438891,2.731231 0.51429,-0.918985 1.014753,-3.849154 1.11214,-6.511487 z m 20.233988,4.768768 C 83.375249,93.178278 81.206275,90 80.368708,90 c -0.285086,0 -0.04062,1.265625 0.543263,2.8125 1.070543,2.836191 2.550891,3.809344 2.495714,1.640625 z m 8.910953,-0.343191 c 0.833288,-0.833288 1.35772,-1.993444 1.165407,-2.578126 -0.465461,-1.415124 -4.421545,-1.955704 -4.421545,-0.604184 0,0.581918 0.392724,0.815316 0.872721,0.518662 0.479996,-0.296654 1.137706,-0.110614 1.461578,0.413421 0.828928,1.341234 -2.657647,1.191945 -4.021799,-0.172207 -1.768106,-1.768106 -1.313643,-0.01911 0.515625,1.984375 2.063946,2.260513 2.556803,2.309272 4.428013,0.438059 z m 28.321782,-0.535715 c -0.29927,-0.747875 -0.52142,-0.525728 -0.5664,0.566409 -0.0407,0.988275 0.18086,1.541991 0.49239,1.230469 0.31152,-0.311531 0.34482,-1.120125 0.074,-1.796878 z M 90.253298,78.820142 c 0.322218,-1.23217 0.07822,-1.65376 -0.768963,-1.328664 -0.682519,0.261907 -1.011508,1.074093 -0.731087,1.804859 0.675678,1.760786 0.936738,1.677912 1.50005,-0.476195 z M 50.9431,71.33685 c -0.932634,-2.625893 -2.053708,-4.77435 -2.491274,-4.77435 -0.437567,0 -0.654951,0.330478 -0.483076,0.734396 3.308143,7.774362 4.083234,9.40112 4.351483,9.132871 0.175212,-0.175212 -0.444498,-2.467025 -1.377133,-5.092917 z m 5.421343,3.03034 c -0.817081,-1.405103 -1.000022,-1.445603 -1.023435,-0.226565 -0.03032,1.578825 0.955493,3.000374 1.619926,2.33594 0.21914,-0.219139 -0.04928,-1.168358 -0.596491,-2.109375 z m 57.405227,-1.007815 c -0.36789,-2.65327 -0.24197,-3.170683 0.51333,-2.109375 0.55044,0.773437 1.00725,2.119633 1.01515,2.991547 0.007,0.871913 0.48134,1.87391 1.0521,2.226661 0.72754,0.449646 0.83448,-0.304475 0.35773,-2.522797 -0.82435,-3.835654 -3.16506,-8.454803 -3.26617,-6.445411 -0.0443,0.880259 -0.58956,0.529599 -1.45781,-0.9375 -1.35206,-2.284607 -1.3731,-2.249122 -0.83336,1.40625 0.53462,3.620722 2.20249,8.90625 2.81041,8.90625 0.16283,0 0.0767,-1.582031 -0.19138,-3.515625 z M 89.178832,73.8125 c -0.925889,-0.919001 -1.033575,-0.811316 -0.524807,0.524807 0.35206,0.924583 0.876273,1.444895 1.164918,1.15625 0.288644,-0.288644 5.94e-4,-1.045119 -0.64011,-1.681057 z M 51.5625,63.75 c 0,-1.03125 -0.161734,-1.875 -0.359408,-1.875 -0.197674,0 -0.580054,0.84375 -0.849732,1.875 -0.269677,1.03125 -0.107944,1.875 0.359409,1.875 0.467352,0 0.849731,-0.84375 0.849731,-1.875 z M 78.75,64.6875 c 0,-0.515625 -0.657711,-0.9375 -1.461578,-0.9375 -0.803868,0 -1.200846,0.421875 -0.882172,0.9375 0.318674,0.515625 0.976384,0.9375 1.461578,0.9375 0.485195,0 0.882172,-0.421875 0.882172,-0.9375 z m 26.60797,-8.372594 c -0.93486,-1.582573 -2.03453,-2.877406 -2.44372,-2.877406 -0.40919,0 0.20414,1.446379 1.36296,3.214176 2.57511,3.928387 3.44088,3.65861 1.08076,-0.33677 z M 95.625,48.345088 c 0,-0.222701 -1.371094,-1.316072 -3.046875,-2.429711 l -3.046875,-2.0248 2.630404,2.429712 C 94.695628,48.660931 95.625,49.204274 95.625,48.345088 Z M 66.5625,8.4375 C 66.5625,7.921875 66.165523,7.5 65.680328,7.5 c -0.485194,0 -1.142904,0.421875 -1.461578,0.9375 -0.318674,0.515625 0.0783,0.9375 0.882172,0.9375 0.803867,0 1.461578,-0.421875 1.461578,-0.9375 z M 11.25,202.17655 c 0,-2.15657 3.351385,-4.42832 8.577605,-5.81435 8.882053,-2.35562 49.593608,-9.12849 50.346351,-8.37574 0.670446,0.67044 -1.303829,1.06533 -23.298956,4.66018 -27.502797,4.49501 -33.75,6.33128 -33.75,9.92033 0,0.47879 -0.421875,0.87053 -0.9375,0.87053 -0.515625,0 -0.9375,-0.56743 -0.9375,-1.26095 z m 128.2279,-5.05171 c 2.20504,-0.19803 5.58004,-0.19525 7.5,0.007 1.91997,0.20144 0.11585,0.36347 -4.00915,0.36007 -4.125,-0.004 -5.69588,-0.16822 -3.49085,-0.36627 z m -6.82165,-3.10008 -6.5625,-0.56866 5.72853,-0.16555 c 3.15068,-0.091 7.79131,-0.43117 10.3125,-0.75583 3.04868,-0.39258 4.26997,-0.27709 3.64647,0.34478 -1.40114,1.39749 -5.79229,1.78065 -13.125,1.14526 z m 23.4375,-0.89976 c 0.31868,-0.51563 2.05881,-0.9375 3.86696,-0.9375 1.80816,0 4.10357,-0.43672 5.10092,-0.97048 0.99735,-0.53377 1.81337,-0.60149 1.81337,-0.15049 0,0.451 -1.07453,1.30959 -2.38786,1.90798 -2.95389,1.34589 -9.20141,1.4579 -8.39339,0.15049 z M 32.206964,188.65882 c 1.015603,-1.64327 27.884926,-4.95329 39.616408,-4.88031 9.222025,0.0574 1.669641,1.61395 -10.885872,2.24363 -11.705122,0.58705 -21.595935,1.7075 -27.092956,3.06916 -1.455272,0.36049 -2.033312,0.20783 -1.63758,-0.43248 z M 24.84375,187.5 c 2.580454,-1.10886 3.497813,-1.10886 2.8125,0 -0.318674,0.51562 -1.503728,0.90785 -2.633453,0.8716 -1.980344,-0.0635 -1.986768,-0.0948 -0.179047,-0.8716 z m 52.5,0 c 2.687741,-1.15496 11.026306,-1.15496 10.3125,0 -0.318674,0.51562 -3.191227,0.90785 -6.383453,0.8716 -4.110673,-0.0467 -5.257002,-0.30096 -3.929047,-0.8716 z m 48.98438,0.31661 c 0.64453,-0.26007 1.69921,-0.26007 2.34374,0 0.64454,0.26007 0.11719,0.47287 -1.17187,0.47287 -1.28906,0 -1.81641,-0.2128 -1.17187,-0.47287 z m -3.06615,-6.17599 c -1.53451,-4.18996 -4.19666,-12.33906 -4.18249,-12.80301 0.0281,-0.92064 5.45525,9.23516 5.85968,10.96519 0.2427,1.03818 0.70106,0.44672 1.30023,-1.6778 l 0.92539,-3.28125 0.70712,2.78891 c 0.44805,1.76712 0.33557,2.91276 -0.30699,3.12695 -0.55775,0.18591 -0.77564,0.72388 -0.48418,1.19546 0.29145,0.47158 -0.35197,0.85743 -1.42984,0.85743 -1.07786,0 -2.15288,-0.52734 -2.38893,-1.17188 z m 0.66041,-12.4179 c -0.58833,-1.29125 -0.70606,-2.34772 -0.26163,-2.34772 0.77845,0 2.18101,3.84573 1.6106,4.41615 -0.15361,0.1536 -0.76064,-0.7772 -1.34897,-2.06843 z m -1.01945,-5.99402 c -0.67858,-1.23203 -1.5908,-3.48489 -2.02715,-5.00637 -0.65807,-2.29455 -0.54751,-2.67196 0.64835,-2.21307 0.79294,0.30429 1.82908,0.55324 2.30254,0.55324 0.47345,0 0.86082,0.44677 0.86082,0.99283 0,0.54606 -0.42187,0.7321 -0.9375,0.41342 -1.21116,-0.74854 -1.19017,0.11988 0.0593,2.45452 0.54823,1.02437 0.84618,2.57866 0.66212,3.45399 -0.27532,1.30922 -0.55349,1.1942 -1.56846,-0.64856 z m 2.32819,-1.54539 c -0.32843,-1.30854 -0.22226,-3.04905 0.23592,-3.86778 0.69009,-1.23312 0.93533,-1.08109 1.42901,0.88585 0.32777,1.30594 0.85381,3.04643 1.16899,3.86778 0.36713,0.95671 0.0682,1.49334 -0.83186,1.49334 -0.77271,0 -1.67364,-1.07063 -2.00206,-2.37919 z m -8.52183,0.4889 c -0.32387,-0.52404 -0.97675,-0.71306 -1.45084,-0.42006 -0.47409,0.293 -0.61074,-0.12199 -0.30367,-0.92221 0.72632,-1.89274 1.02501,-1.83655 2.23271,0.42006 1.01513,1.89679 0.60862,2.68073 -0.4782,0.92221 z"
     id="path3448"
     inkscape:connector-curvature="0" />
</svg>
