<?xml version="1.0" encoding="utf-8"?>
<!DOCTYPE svg PUBLIC "-//W3C//DTD SVG 1.1//EN" "http://www.w3.org/Graphics/SVG/1.1/DTD/svg11.dtd">
<svg version="1.1" id="Layer_1" xmlns="http://www.w3.org/2000/svg" xmlns:xlink="http://www.w3.org/1999/xlink" x="0px" y="0px"
	 viewBox="-361.9453 -348.5066 1786.9453 1667.9233" enable-background="new -361.9453 -348.5066 1786.9453 1667.9233"
	 xml:space="preserve">
<path d="M1388.5405,699.1511c-2.1226-1.1668-4.5018-1.5485-6.8018-1.9166l-0.4978-0.0803
	c-4.1388-1.1829-8.5288-2.7501-13.8153-4.9377l0.0002-0.0006c-8.9751-4.5491-16.6425-6.9729-24.127-7.6313l-0.0593-0.0435
	l-0.0143,0.0274c-10.1039-2.7584-20.515-5.0388-30.5853-7.2429c-15.7803-3.455-32.0991-7.0281-47.5754-12.5145
	c-8.7632-5.4827-18.2233-11.0778-29.0149-13.9738c-9.024-7.9388-20.6853-9.6045-28.8815-9.6045
	c-9.0172,0-18.5458,2.0089-26.8325,5.6583c-0.0006,0.0001-0.0011,0.0002-0.0015,0.0003c-1.5936,0.621-3.2177,1.2995-4.8303,2.0179
	h-0.0515c-1.6903,0-7.2649,0.3901-8.2496,5.3791c-12.7197,12.0854-28.7461,17.8706-44.2448,23.4661
	c-8.5175,3.075-17.3253,6.2547-25.5457,10.4492l-0.0171,0.0088l-1.1793,0.5047l-0.0042,0.0016
	c-4.6049,1.7241-9.0308,3.5326-12.5803,6.7072l-0.0059,0.0052c-1.2769,0.8873-2.5402,1.8406-3.7632,2.7625
	c-0.3457,0.2623-0.6919,0.5229-1.0457,0.7885c-8.3915,4.4667-14.8574,11.6937-21.1108,18.6848
	c-0.5605,0.6248-1.1195,1.2496-1.6785,1.871l0.0929,0.1284c1.6666-0.7413,3.1155-1.1162,4.306-1.1162
	c1.2478,0,2.2205,0.3918,2.9719,1.1989c2.3657,2.538,1.9318,8.6796,1.5485,14.0984c-0.1821,2.589-0.3538,5.0325-0.2064,6.8572
	l-0.1022,1.4507c-2.6516,2.0286-2.0029,5.4508-1.582,6.8708c-3.1001,4.4887-4.6022,9.851-6.0526,15.0392
	c-1.8633,6.6603-3.7906,13.5471-9.1271,18.609c-15.3212-0.0682-27.6594-9.5334-36.7011-17.7796
	c-0.0004-0.0006-0.0009-0.0013-0.0013-0.002c-0.3293-0.3732-0.9423-1.0436-1.3475-1.4877l-0.1642-0.1762
	c-2.4648-5.8529-6.1099-13.1166-12.476-17.4271c-5.73-10.5229-12.8578-20.3635-19.754-29.8818
	c-0.2613-0.5159-0.5226-1.03-0.7839-1.5442c-0.5129-1.0105-1.0237-2.0161-1.527-3.02c-0.3483-4.8653-2.2336-9.0932-5.4564-12.2289
	c1.6224-11.5846-2.2254-22.3531-5.9482-32.769c-1.4303-4.0021-2.9095-8.1409-4.0494-12.2527
	c1.8896-10.0828,3.6492-20.3801,5.3513-30.338c5.4526-31.8898,11.0909-64.867,21.8255-96.0205
	c26.9894-95.7073,74.3791-183.2965,112.6468-248.9091c11.476-18.173,24.5189-35.663,37.1346-52.5772
	c9.0105-12.0821,18.3284-24.5763,27.0029-37.2258c4.4766-9.1946,9.1608-18.4905,13.6914-27.4799
	c13.5073-26.8028,27.474-54.5182,37.8083-83.3178c2.9432-9.2419,8.5834-17.1767,14.0376-24.8507
	c3.7673-5.2989,7.6613-10.7785,10.6484-16.6533l0.0022-0.0046c21.2792-38.4205,48.3771-89.3914,69.2181-142.9828
	c9.4099-18.1829,16.3853-37.4295,20.7313-57.2063c4.4597-20.2931,6.0453-40.6892,4.7096-60.6311
	c-2.3844-14.1296-6.5553-28.0912-10.5878-41.5926c-4.3887-14.6902-8.926-29.8803-11.1787-45.3355
	c0.1401-0.9102-0.0507-1.6802-0.5707-2.2898c-0.6704-0.7852-1.8457-1.2352-3.2271-1.2352c-1.5198,0-2.8816,0.5661-3.5134,1.4391
	l-0.014-0.0063l-0.0344,0.0564c-0.0002,0.0004-0.0009,0.0006-0.0011,0.0011l-0.0541,0.0802l0.0087,0.0038
	c-4.7076,7.7869-5.7686,16.8192-6.7919,25.5562c-0.7717,6.5949-1.5704,13.4136-3.9294,19.692
	c-2.4401,11.0563-8.7994,20.375-14.951,29.3872c-5.616,8.2289-11.4215,16.7373-14.092,26.441
	c-0.9148,1.1694-1.8663,2.3202-2.7876,3.4334l-0.6201,0.751l-0.0012,0.0013c-0.2499,0.2508-0.6265,0.6315-1.0031,1.0123
	c-0.3726,0.3759-0.7419,0.7502-0.995,1.0035c-5.3188,3.3477-9.9642,7.4173-13.8071,12.0952
	c-7.9663,6.7098-12.6327,16.2682-17.145,25.5135c-5.424,11.1137-11.0319,22.6057-22.3997,28.819l-0.022,0.016
	c-6.714,7.3911-12.5887,15.6815-18.271,23.6991c-2.4608,3.4712-5.0043,7.061-7.5748,10.5157l-0.0004,0.0002l-0.0009,0.0015
	c-0.0026,0.0034-0.0051,0.007-0.0076,0.0103l0.0009,0.0008l-0.6426,1.0569c-2.196,3.0558-4.3636,6.0267-6.7534,8.7747
	c-13.0696,11.7339-19.2135,28.968-25.1532,45.6348c-0.6455,1.8102-1.313,3.6816-1.9719,5.4952
	c-0.4652,0.7472-1.4399,2.2444-1.9845,3.0712l-0.0071,0.011c-5.9625,8.5103-10.6056,16.3347-14.1971,23.919l-0.0006,0.0004
	l-0.0101,0.0194c-5.9912,7.5841-9.4067,16.0711-9.8822,24.5468l-0.2428,0.2752c-3.1835,3.6156-6.4746,7.3536-8.4845,11.8419
	c-1.2112,1.9808-2.8331,4.5604-4.6678,6.9795c-7.1257,4.1135-12.5051,11.2463-14.3909,19.0872
	c-0.6259,1.051-1.25,2.1249-1.8524,3.1639c-0.3804,0.6548-0.759,1.31-1.1423,1.9647c-4.1613,3.216-8.0983,6.791-11.9075,10.2483
	l-1.1083,1.0064l-1.4355,0.3761c-11.21,1.3192-18.3572,11.8996-20.2527,21.175l0.0005,0.0002l-0.4213,1.0383l-1.1061,0.8692
	l-0.0013-0.0013c-1.0824,0.8629-2.2441,1.7317-3.3688,2.5726c-5.2952,3.9615-10.7662,8.0592-12.7269,14.5197h-0.0002l-0.0028,0.0072
	c-0.2716,0.2351-0.5448,0.4694-0.8179,0.7046c-3.1802,2.7309-6.4653,5.5559-7.8033,9.7543
	c-3.3845,0.6074-5.5748,3.4408-5.1219,6.6255c-10.1744,10.4892-17.4963,23.3486-24.5776,35.7853
	c-6.9268,12.1691-14.0899,24.7528-23.9346,35.1522c-4.4384,4.4586-7.3447,8.9008-8.8866,13.5791l-0.053-0.0051l0.0122,0.0461
	c-1.3293,0.4778-2.3326,1.3631-2.8981,2.5746c-0.6383,1.371-0.6545,3.0713-0.05,4.671c-2.5637,4.5963-4.7646,8.3963-6.9246,11.9561
	c-14.6261,10.6279-22.5652,27.2455-29.4457,43.3581c-2.2577,5.7363-6.0977,10.7313-9.811,15.5624
	c-4.6937,6.104-9.5454,12.4167-11.2501,20.2844c-0.5511,1.2438-1.0826,2.5239-1.5987,3.7609
	c-0.4855,1.1689-0.9896,2.3783-1.5086,3.559c-3.511,4.0591-5.0906,9.2395-6.6154,14.2501
	c-0.1345,0.4425-0.2689,0.8835-0.4053,1.3235c-9.9023,8.2029-13.2921,20.6888-14.4293,27.4043
	c-1.562,8.585-6.155,16.0639-10.5945,23.2972c-5.0878,8.287-10.3496,16.8559-11.1078,27.1574
	c0.049,7.4139-3.2473,13.7227-6.4371,19.8245c-2.4016,4.5969-4.8865,9.3514-5.952,14.5734
	c-6.0092,4.2957-6.2081,12.4476-6.3818,19.6416c-0.0287,1.209-0.0572,2.3504-0.111,3.4593
	c-0.6666,2.3784-1.4638,4.7668-2.2345,7.0761c-0.488,1.4649-0.9929,2.9796-1.4623,4.4799l-0.0051,0.0152l0.0004,0.0043
	c-1.5765,7.3426-4.8265,14.1618-7.9691,20.7574c-2.1627,4.5398-4.401,9.2348-6.0774,14.0663l0,0
	c-3.5208,6.2412-5.9879,13.0852-8.3722,19.7063c-3.7758,10.4779-7.6782,21.3122-15.8427,29.7841l-0.0021,0.0034
	c-11.8871,10.3082-14.9279,27.6249-17.6103,42.903c-0.3719,2.1179-0.7225,4.1199-1.0959,6.1031
	c-8.0497,9.4084-13.7651,21.0392-16.0989,32.7535l-0.0072,0.0106l0.0009,0.0134c-2.3896,6.7603-1.0414,13.7658,0.2643,20.5389
	c0.1498,0.7799,0.2991,1.558,0.4432,2.3334c-0.9161-0.1404-2.5945-0.3959-3.4712-0.5315c-0.2742-0.3365-0.6533-0.8059-1.0484-1.2936
	c-0.5083-0.6298-1.0385-1.285-1.3864-1.7072l-0.0135-0.0169l-0.0203-0.0084c-6.4708-2.4722-12.7289-5.6823-18.7809-8.7859
	c-3.7957-1.9474-7.7205-3.9595-11.6604-5.7719l-0.0013-0.0067l-0.0313-0.0104c-7.1575-6.6209-16.1876-10.7372-24.9233-14.7178
	l-1.2278-0.5615l-0.0082-0.011l-0.0143-0.0015c-5.3795-3.5637-11.7216-7.4763-18.9283-8.8661
	c-3.1271-2.2115-5.7418-3.8568-8.2299-5.1757c-9.1688-8.1971-20.2805-14.0527-31.0244-19.7142
	c-5.5297-2.9143-11.2484-5.9264-16.6212-9.2189c-3.373-2.4174-6.8417-4.8093-10.1976-7.122
	c-3.9344-2.7114-8.0041-5.5174-11.9489-8.3854l0.0002-0.0003c-16.9066-12.6836-36.5732-22.8617-53.6811-31.4058l-0.0038-0.0027
	c-13.455-6.9791-26.4398-15.2517-38.9972-23.2524c-8.9987-5.7346-18.3039-11.6633-27.7104-17.0703l-0.004-0.0016
	c-3.4009-2.3815-7.0061-4.5049-10.7141-6.3085c-6.2078-4.7177-13.6006-10.1767-21.3768-14.9075
	c-3.5031-1.86-6.1584-4.7746-8.2929-7.381l-0.0295-0.0228c-1.2116-0.5353-2.4198-1.0757-3.6263-1.616
	c-4.7852-2.142-9.7328-4.3572-14.7491-6.1446c-1.7505-1.0262-3.521-2.0845-5.2333-3.1082
	c-5.7185-3.4197-11.6319-6.9542-17.7741-9.8727l0.0004-0.0008c-10.2255-7.0889-22.5128-9.6843-34.3957-12.1936
	c-5.2153-1.1018-10.608-2.2408-15.7211-3.7429c-18.1832-5.559-37.2385-8.3672-55.6665-11.0825
	c-11.4394-1.6849-23.2676-3.4283-34.7697-5.812l-0.0051-0.0012c-1.9926-0.434-3.9843-0.8739-5.9761-1.3138
	c-10.6854-2.361-21.7352-4.8019-32.7801-6.2062l-0.0156-0.0029c-60.4361-10.4585-119.5043-20.8123-177.7299-32.474
	c-69.938-4.7695-137.4283-22.7458-199.9422-41.4618l-0.0001,0.0002c-2.2501-0.8821-4.2739-1.6624-6.1853-2.3846l-0.0036-0.0014
	c-11.06-4.814-24.8121-10.8029-36.5791-19.0474l0.0078-0.0032l-0.1266-0.076c-0.0025-0.0018-0.0051-0.0033-0.0076-0.0051
	l-0.0363-0.0253l-0.0032,0.0013c-14.7107-8.8499-28.3441-19.8891-41.5287-30.5646c-15.2998-12.3895-31.1214-25.2011-48.6334-34.5704
	l-0.0954,0.1283c25.4272,25.7167,54.4745,48.9811,86.3349,69.1496c2.0137,3.0784,2.6498,5.3548,1.8884,6.7636
	c-0.5505,1.0182-1.8625,1.5561-3.7952,1.5561c-0.0008,0-0.0017,0-0.0017,0c-3.2316,0-8.0021-1.5788-11.1859-3.6834l0.0393-0.0121
	l-0.1933-0.0829l-0.0279-0.0184l-0.0087,0.0025c-18.8132-8.0665-37.7698-16.6716-56.102-24.9934
	c-10.5017-4.7675-21.3613-9.6971-32.0714-14.4705c-4.8905-2.9989-9.7244-4.6306-14.3659-4.8491l-0.1663-0.0076l0.0963,0.1351
	c2.4841,3.5174,6.4041,5.3831,10.2085,6.9912l0.0009,0.0005c7.3683,4.3567,14.9959,8.5343,22.3718,12.5752
	c6.9315,3.7968,14.0993,7.7234,21.0526,11.7982c4.6314,5.9626,12.4073,7.7963,18.1224,8.2826
	c0.6644,0.2461,1.332,0.4904,2.0014,0.7365c7.6184,2.7918,15.4955,5.6795,21.3466,11.5112l0.7751,1.3982
	c-0.1054,0.5117-0.2616,1.2946-0.4127,2.0519c-0.1148,0.5741-0.2263,1.1322-0.309,1.54
	c-14.6801-2.912-29.4615-6.6481-43.7575-10.2618c-9.7122-2.4547-19.7541-4.9924-29.6876-7.2512
	c-6.7495-4.0698-14.983-4.9538-22.947-5.8087c-2.3556-0.2524-4.7915-0.5142-7.1091-0.8544l-0.1511-0.022l0.0667,0.1376
	c2.2003,4.5703,8.1012,6.1263,13.8071,7.6301c3.1014,0.8179,6.3084,1.664,8.817,2.9841l0.0087,0.0098l0.0187,0.0021
	c13.5359,5.923,26.4375,9.902,38.347,11.8258c0.406,0.2162,1.005,0.537,1.6059,0.8588c0.6053,0.3242,1.2099,0.6484,1.6169,0.8646
	l0.0027,0.0009l-0.0002,0.0008c9.9046,4.7594,20.9517,6.8212,31.6356,8.8147l1.138,0.212c1.4319,1.6802,1.6363,3.876,1.8331,6.0013
	c0.0144,0.1579,0.0287,0.3158,0.0439,0.4728c-1.638,0.1148-3.3477,0.1731-5.0836,0.1731
	c-7.9813-0.0008-16.0141-1.2183-23.7818-2.3961c-3.4714-0.5259-7.0598-1.0701-10.6106-1.4987l0.0001-0.0009
	c-5.0161-0.9304-10.3699-1.3458-17.3591-1.3458c-3.2522,0-6.5557,0.0894-9.4711,0.1686l-1.4774-0.2129l0.0003-0.009l-0.0798-0.0025
	l-0.0823-0.0118l-0.0001,0.0054c-2.1364-0.0794-4.5562-0.6016-7.12-1.1579c-2.9483-0.6408-5.9972-1.3028-8.7876-1.3028
	c-3.7986,0-6.4826,1.2884-8.2033,3.9387l-0.076,0.1165l0.1385,0.0085c7.262,0.4239,14.5695,2.034,21.6364,3.5909
	c8.2101,1.8085,16.6997,3.6787,25.1141,3.6787c1.1776,0,2.3471-0.0375,3.4785-0.1096c5.7154,4.5702,13.4879,4.9118,21.0066,5.2414
	c6.4666,0.2837,12.5769,0.5513,17.0222,3.4414c-1.4877,1.5755-3.8045,2.3092-7.2788,2.3092c-0.0008,0-0.0017,0-0.0025,0
	c-2.5169,0-5.2846-0.3715-8.2143-0.7641c-2.9348-0.3935-5.9693-0.8004-8.7327-0.8004c-5.6924,0-9.0772,1.8203-10.651,5.7287
	l-0.0431,0.1072l0.1157,0.0042c11.8956,0.4137,23.8815,2.0888,35.4731,3.7083c5.7988,0.8105,11.7942,1.6481,17.7036,2.3168
	c-0.1089,3.8475,1.5231,6.6532,4.9874,8.5774c2.999,1.665,6.8626,2.3995,10.2711,3.0471c0.3394,0.0644,0.6736,0.1279,1.0023,0.1914
	c13.2145,6.1796,27.7254,8.2471,41.758,10.2468c3.9063,0.5564,7.9455,1.1322,11.8908,1.7878
	c2.309,1.7244,4.4921,3.6384,6.3382,5.3001l-0.0171,0.0052l0.1279,0.0938l0.03,0.0277l0.0067-0.002
	c14.9619,11.0465,33.3218,15.0067,51.0778,18.837c9.0097,1.9427,18.3259,3.9522,27.0713,6.8634
	c14.7308,4.2866,30.1175,6.5257,44.9969,8.6905c7.3876,1.075,15.0273,2.1867,22.4868,3.5346l0.0091,0.0048l0.0025-0.0001
	c12.8838,6.1407,27.3768,7.4366,41.3925,8.6898c3.59,0.3208,7.3016,0.6526,10.9043,1.0605l0.0005-0.0019l1.2955,0.2163
	l0.0666,3.3869c-0.3069,1.9199-0.0227,3.4485,0.8723,4.673c1.9225,2.6317,6.3155,3.292,10.5649,3.9311
	c2.9585,0.4449,5.7532,0.8646,7.6081,1.9132l0.0002-0.0003c6.4129,4.9215,14.5037,6.0656,22.3285,7.1711
	c5.027,0.7101,10.2263,1.4446,14.9292,3.1746l0.0279,0.0101l0.0279-0.0101c1.7325-0.6408,3.3747-0.9532,5.0211-0.9532
	c4.6083,0,8.2532,2.4578,12.1117,5.06c2.9013,1.9561,5.9011,3.9772,9.3645,4.8773l0.0023,0.0037l0.0184,0.0038
	c6.5766,4.9963,14.6043,7.4874,22.3695,9.8958c4.7723,1.4803,9.705,3.0114,14.2575,5.1097c0.0899,0.9396,0.0255,1.991-0.0401,3.0084
	c-0.2237,3.4887-0.4551,7.0939,5.2305,7.4772c1.1466,0.6772,2.321,1.3847,3.4566,2.0669
	c9.2102,5.5393,18.7347,11.2653,29.6101,11.7314c2.7786,1.0625,5.4566,2.2663,7.9615,3.5765
	c3.4229,9.8261,13.4263,14.9502,21.2206,17.5173l0.0006-0.0011c1.6327,0.6714,3.3127,1.3325,4.9369,1.9717
	c1.2502,0.4904,2.5424,0.9995,3.8188,1.5146c-0.1066,0.8523-0.2879,2.4372-0.3723,3.2592l-0.0084,0.0743l0.0735,0.0135
	c6.0031,1.1331,11.1982,4.3567,16.2227,7.4739c5.244,3.2532,10.6671,6.6169,17.0514,7.6531
	c5.6936,2.661,10.9803,6.359,16.093,9.9374c7.313,5.1174,14.8764,10.4095,23.7738,12.7636l0.8067,0.3857
	c1.3541,0.6484,2.7538,1.3187,4.1236,2.0032l-0.4846,1.3335l0.0701,0.0304c6.7976,2.8893,12.6132,7.6411,18.238,12.2358
	c4.5745,3.7383,9.3056,7.6028,14.5663,10.478l0.0015,0.0016c1.8178,1.2209,3.8535,2.1614,5.8224,3.0699
	c0.2647,0.122,0.529,0.2442,0.8021,0.371c25.5679,17.1801,55.9236,37.1461,87.2151,54.9683
	c1.8313,1.6262,3.615,3.3782,5.3394,5.0715l0.4433,0.4357l0.0329,0.0203c3.1172,0.9472,6.1103,2.0679,9.4183,3.328
	c0.6565,0.5988,1.2589,1.6256,1.8955,2.7139c1.0529,1.7967,2.1412,3.6559,3.5841,3.6559c0.6193,0,1.2445-0.3495,1.9056-1.0423
	l0.0034,0.0139l0.103-0.1165c0.895-1.0165,1.8575-1.5114,2.9416-1.5114c1.9259,0,3.899,1.5975,5.64,3.0058
	c0.461,0.3732,0.8958,0.7244,1.3239,1.0436c4.6083,3.0919,9.3601,6.1449,13.9557,9.0949
	c9.6691,6.2108,19.6674,12.631,28.9228,19.8127l0.1174,0.0912l0.0004-0.0032c2.7702,2.2308,5.8629,4.0739,8.7974,5.7293
	l0.0338,0.0187c2.5281,1.5632,5.223,2.9526,7.8302,4.2958l0.4517,0.2322c3.7908,2.6906,7.5678,5.5291,11.2202,8.275
	c9.0168,6.7771,18.341,13.785,28.5948,19.0934c1.7167,1.8464,3.2865,3.4725,4.7953,4.968l-0.0076,0.0084l0.0637,0.0486
	l0.0579,0.0577l0.0044-0.0046c5.1645,3.9977,7.6406,9.8488,10.0311,15.5113c1.7255,4.0882,3.5113,8.3137,6.2996,11.8837
	c-2.6974,7.7185-5.8887,19.2092-2.6151,30.0112c0.5742,1.8558,1.3678,3.6829,2.1344,5.4509
	c0.1588,0.3662,0.3175,0.7325,0.475,1.1005l0.3947,1.3007c0.3225,3.0125-0.6147,5.9491-1.5198,8.7894
	c-1.5869,4.9753-3.2266,10.1193,1.6266,16.0119l-0.0676,1.291c-0.4171,0.7283-0.7434,1.5789-1.0592,2.4034
	c-0.6822,1.7815-1.3881,3.6255-3.075,4.4968c-5.8409,1.2631-11.8052,2.3793-17.5718,3.4583
	c-3.7893,0.7109-7.7086,1.4437-11.5536,2.2121c-2.1193,0.4103-4.2503,0.8612-6.3121,1.2969
	c-3.4775,0.7356-7.0728,1.4962-10.6567,2.0737c-9.771,0.1793-17.8925,1.7291-24.8273,4.7374
	c-7.9752,0.6517-16.5707,1.889-27.0493,3.8898c-0.7078,0.0473-1.4231,0.0911-2.1429,0.1367
	c-8.7192,0.5421-18.6019,1.155-25.706,6.8339l-0.0211,0.0253c-0.5193,0.9912-0.6316,1.7274-0.3419,2.2492
	c0.4677,0.8427,1.9073,0.9524,3.2987,1.0588c0.5957,0.0437,1.2116,0.0912,1.7245,0.1964c2.8014,1.0884,5.5378,2.2867,8.5677,3.6266
	h0.0013c4.3176,2.1248,9.0624,3.1578,14.5049,3.1578c6.4708,0,13.1882-1.4658,19.6835-2.8825
	c6.1044-1.3307,12.4156-2.705,18.504-2.8589c1.4174,3.8995-1.0527,7.0259-3.4507,10.0491
	c-2.4443,3.0836-4.7476,5.9973-2.9197,9.5255l-0.0084,0.022l0.031,0.0311l0.0754,0.1446l0.0196-0.0511
	c0.2314,0.2303,0.5419,0.53,0.8551,0.8312c0.3478,0.3344,0.7075,0.6823,0.9406,0.9153l0.0152,0.0152l0.0038,0.0009
	c4.0109,3.921,9.5889,4.7792,14.9844,5.6087c2.0585,0.3152,4.1857,0.6427,6.1719,1.1377c2.5786,1.816,5.2945,3.5265,7.9197,5.1812
	c5.5923,3.5219,11.3735,7.1638,16.1302,12.012c0.1874,0.3713,0.3727,0.7424,0.5602,1.1154
	c0.9575,1.9102,1.9478,3.8829,3.0176,5.7888l-0.0912,0.0252l0.1511,0.0845l0.0211,0.0353l0.0317-0.0089
	c1.422,0.7856,3.0796,1.1689,5.0696,1.1689c3.1189,0,6.6397-0.9575,10.044-1.8845c3.3874-0.9219,6.8913-1.8743,9.9798-1.8743
	c0.4525,0,0.8932,0.0203,1.3104,0.0608v-0.0004c0.4777,0.0896,1.1546,0.2137,1.8575,0.3432
	c0.8997,0.1662,1.8328,0.3376,2.4544,0.4556l-0.0042,0.0391l0.0676-0.0153c1.9326,2.2092,4.4858,3.4263,7.1986,3.4263
	c1.1896,0,2.3791-0.2373,3.5373-0.7008c3.5056,0.5153,5.374,1.3785,5.5509,2.5667c0.3107,2.1036-4.6791,4.8021-7.7567,6.2557
	l-0.0009-0.0061l-0.1049,0.0563l-0.0488,0.0213l0.0004,0.0046l-1.0398,0.5586c-1.1166-0.567-2.3708-0.8941-3.4524-0.8941
	c-1.1913,0-2.7466,0.3875-3.4467,2.2067c-8.1288,0.6575-15.1915,4.7455-21.5906,12.4995
	c-5.5792,6.7596-9.9005,15.3885-13.7151,23.0026c-0.9705,1.9377-1.8879,3.7685-2.8099,5.5438l-0.0118-0.0034l-0.0195,0.0627
	c-14.9203,20.2905-30.4764,40.7025-45.5195,60.4426c-2.2816,2.9954-4.563,5.989-6.843,8.9828l-0.001,0.0007
	c-2.039,2.3134-3.9522,4.8868-5.8021,7.3743c-4.9296,6.6281-10.0267,13.4818-18.1422,16.3773
	c-0.4099,0.0878-1.0366,0.2307-1.6334,0.3654c-0.4626,0.1047-0.9059,0.2061-1.2158,0.2736l-0.0388,0.0084l-0.0013,0.0027
	c-5.9773,0.9617-9.4732,5.7628-12.8517,10.4111c-1.638,2.2527-3.3317,4.583-5.2744,6.3949c-2.028,2.4198-4.4681,4.642-6.8288,6.7916
	c-4.6325,4.2191-9.4217,8.5823-11.4557,14.7112l-0.6537,0.7894c-0.601,0.2556-1.8003,0.7885-2.4052,1.0631l-0.0059,0.0044
	c-9.0114,4.2236-15.6751,12.265-22.1194,20.0431c-1.632,1.9706-3.1738,3.8314-4.756,5.6349l0.0017,0.0021l-0.0523,0.0486
	c-0.4652,0.4652-1.3425,1.3435-1.7925,1.7916c-7.1437,5.3013-9.2212,20.022-5.1824,25.6317l0.1655,0.2297l-0.0186-0.2821
	c-0.4315-6.5062,2.3607-12.2122,5.0617-17.7322c0.7375-1.507,1.4995-3.0648,2.1834-4.6152
	c0.7637,0.1638,2.2345,0.4698,3.0556,0.6299c0.0929,5.8494,0.1085,12.2727,0.0507,19.6414
	c-4.0654,6.3419-7.2197,13.3027-10.2694,20.0348c-2.2328,4.9286-4.5422,10.0243-7.1923,14.8436
	c-1.2095-0.2651-2.183-0.399-2.9623-0.399c-1.0554,0-1.7511,0.2432-2.1277,0.7429c-0.6898,0.9153-0.2144,2.5702,0.336,4.4884
	c0.7641,2.6597,1.7148,5.9711-0.1781,8.4888l-0.0329,0.0439l0.0287,0.0472c1.8145,3.0125,2.2079,5.7565,1.1702,8.151
	c-1.5122,3.4938-6.2749,6.3341-13.0666,7.7914l-0.222,0.0472l0.2018,0.1047c1.2732,0.6534,1.9605,1.3256,2.1024,2.0533
	c0.2052,1.0537-0.7557,2.1665-1.7722,3.3452c-1.6827,1.9523-3.5867,4.1641-1.4248,7.0431l0.2191,1.4172
	c-1.5835,7.0215-8.4413,9.3104-15.0727,11.5228c-2.8057,0.9355-5.4551,1.8204-7.7078,3.0413l-0.0186,0.0101l-0.0118,0.0186
	c-0.7565,1.2209-0.9743,2.1378-0.6476,2.7238c0.2803,0.5049,0.9524,0.7599,1.9977,0.7599c2.408,0,6.4945-1.3931,8.623-2.3827
	c6.8904-2.8165,12.8484-7.5343,17.2322-13.6414l0.0053-0.0061c0.2162-0.2583,0.5378-0.6332,0.8629-1.0132
	c0.3331-0.3888,0.6645-0.776,0.9015-1.0592c0.636,0.1808,1.2823,0.2756,1.9227,0.2756c2.477,0,4.4396-1.3695,5.1431-3.5748
	c0.3094-0.0431,0.6134-0.0692,0.9022-0.0692c3.0159,0,4.4639,2.3861,5.9972,4.9139c0.9045,1.4902,1.8417,3.026,3.1468,4.084
	c0.2586,9.6462-8.3045,15.9644-15.7988,20.391l-0.2626,0.1537l0.3048-0.0034c5.6881-0.0776,11.3577-2.6984,16.4076-7.592
	c1.756-2.7318,3.94-6.1313,4.8628-9.8763l0.4699-1.4646c1.8309-3.3885,2.6782-6.244,2.6672-8.9825
	c1.3703-3.2627,2.6212-6.6713,3.8315-9.9689c2.6874-7.3185,5.4661-14.8885,9.7578-21.4658
	c12.0505-8.6702,22.5516-19.4609,33.1364-30.6814c0.3419,0.0782,0.6885,0.124,1.0313,0.124c2.2049,0,4.0096-1.653,4.2169-3.8506
	c0.2159-0.2072,0.5298-0.5048,0.8464-0.8051c0.3137-0.2971,0.6231-0.589,0.8388-0.796c0.35,0.0621,0.7012,0.0986,1.0449,0.0986
	c2.9711,0,5.354-2.387,5.5682-5.5577c12.4098-5.0338,20.287-15.454,27.9046-25.5316c7.1674-9.4833,14.5771-19.2875,25.7288-24.4902
	l0.0004-0.0002c7.8038-2.3776,12.864-9.4319,17.3283-15.6583c0.2387-0.3323,0.4758-0.6626,0.713-0.9918l0.0063-0.0079
	c2.207-2.8098,4.6792-5.4863,7.0686-8.0732c3.65-3.9519,7.4245-8.0389,10.3428-12.6923c2.8251-2.8422,5.5235-5.9182,8.0248-9.1451
	c3.2527-0.8217,5.4528-3.3416,5.6151-6.4335c10.2057-12.2838,21.3637-24.0413,32.1558-35.4125
	c8.4195-8.8704,17.1244-18.043,25.3227-27.4064l0.0019-0.0022c0.8069-0.693,1.6074-1.3905,2.4078-2.0866
	c1.1284-0.9803,2.2942-1.9958,3.453-2.9797c0.5701-0.2057,1.1388-0.4131,1.7075-0.6188c3.6559-1.3222,7.4367-2.6899,11.0943-4.2182
	l0.2685-0.1115l-0.0211-0.0031c3.0513-1.2947,5.8992-3.0757,8.6517-4.8078c0.9666-0.6085,1.9647-1.2369,2.9517-1.8322h0.0625
	c7.2999,0,9.919-5.3901,12.6917-11.0959c1.7343-3.5664,3.5259-7.256,6.5671-9.5644c8.1932-5.5049,16.9825-10.3344,25.4831-15.0068
	c7.46-4.0979,15.1728-8.3359,22.4542-13.0157l0.0215-0.0054l0.0016-0.0029c3.8763-1.2248,7.4557-2.9856,10.6371-5.2355
	c4.8658-2.7229,9.4187-4.8475,13.9153-6.493c0.5519-0.1115,1.376-0.2851,2.2005-0.457c0.8203-0.1711,1.6379-0.3416,2.2036-0.4581
	v0.0005c7.3624-1.3898,14.9123-1.9774,22.2139-2.5448c12.4359-0.9669,25.2932-1.9684,37.3149-6.9977h0.0004l0.0203-0.0067
	c2.0128-0.8038,4.0764-1.5941,6.0706-2.3591c7.2109-2.7675,14.6661-5.6282,21.4374-9.6227l0.0082-0.0041
	c3.8045-1.8838,7.316-4.308,10.4434-7.2057l0.0093-0.0014l0.0152-0.02c10.5945-7.3679,20.4704-16.8259,30.1944-28.918
	c7.6241-9.48,15.1267-20.5371,23.6121-34.801c1.0233-1.8389,2.9821-2.0297,4.8767-2.2138c0.3831-0.0363,0.7785-0.0766,1.1593-0.1271
	c19.0447,10.4976,40.2548,15.4738,60.7678,20.286c1.7756,0.4169,3.5529,0.8337,5.33,1.254c2.3727,1.1672,4.771,1.7619,7.1271,1.7619
	c1.6764,0,3.3713-0.3025,5.0397-0.8936c2.1583,0.2104,4.3234,0.4354,6.4481,0.6707v0.0016c8.8838,1.2445,18.0024,1.329,26.8221,1.41
	c4.5322,0.0422,9.2183,0.0861,13.8214,0.2853h0.0051h0.005c1.5249-0.1249,3.1189-0.1688,4.6624-0.2128
	c3.6542-0.1013,7.4333-0.2077,10.9541-1.3475v-0.001c1.9221-0.5417,3.8596-1.1679,5.7312-1.7738l0.6597-0.212
	c5.9099-0.0991,9.3756-4.4609,12.7278-8.6786c0.4669-0.5885,0.9495-1.1953,1.4248-1.7721c0.8514-0.8005,1.7717-1.549,2.6633-2.2739
	c0.6177-0.5027,1.2548-1.021,1.8744-1.563c4.0916-0.8522,7.7902-2.5411,10.9917-5.0239c1.7722-1.163,3.4401-2.191,5.0959-3.1413
	l0.0162-0.014l0.0006,0.0005c0.002-0.0018,0.0034-0.0038,0.0051-0.0056l0.0033-0.0028c0.0006-0.001,0.0013-0.0018,0.002-0.0027
	c13.0676-12.7927,10.4414-31.1592,7.9009-48.9219c-1.4381-10.0549-2.9247-20.4504-1.4587-29.5509
	c0.7958-1.3545,1.5867-2.7457,2.3503-4.09c2.064-3.6281,4.197-7.3791,6.6182-10.8304c13.2777-7.076,24.743-11.9918,37.5277-12.9843
	l0.0253-0.0068c8.5006-3.7724,17.7998-5.0017,26.7935-6.1905c2.8621-0.3777,5.8215-0.7692,8.7108-1.2377
	c20.6954-0.576,40.4995-6.6753,59.6533-12.5753c7.97-2.4558,16.2092-4.994,24.4071-7.1025
	c2.0383-0.0676,4.1882-0.0995,6.5692-0.0995c3.7335,0,7.5397,0.0811,11.2209,0.1605c3.6863,0.0793,7.4974,0.1621,11.2428,0.1621
	c8.066,0,14.2552-0.3846,20.0656-1.2445h0.0055l0.0085-0.0017c2.8318-0.4948,5.8916-0.7025,9.1304-0.922
	c9.7941-0.667,19.9225-1.356,25.2146-10.0254l0.0439-0.0726L1388.5405,699.1511z M507.4348,1166.0931l-0.0008,0.0012
	c-2.8572,3.4127-5.9178,6.7595-8.8771,9.995c-3.2114,3.5114-6.5316,7.1423-9.6081,10.8744
	c-2.3955,0.6483-4.5356,1.1688-6.5327,1.5859c3.7876-9.5391,10.9862-16.7224,17.9485-23.6729
	c4.7345-4.7251,9.6294-9.6123,13.455-15.2217c2.9319-0.5355,5.6966-0.9481,8.4491-1.2654
	c2.1112,4.0477-2.4982,7.3798-7.3802,10.9061C511.9017,1161.4535,508.8132,1163.6835,507.4348,1166.0931z M717.464,953.1429
	l-0.0705,0.0314l-0.0831,0.0192l0.0046,0.013c-3.4165,1.4923-7.0562,2.8087-10.5771,4.0819
	c-10.1385,3.6641-20.6216,7.4536-27.7927,16.0439l-0.0004-0.0002c-5.7814,4.3421-10.6183,9.8294-13.9852,15.8702
	c-1.2973,1.3694-2.4755,2.7051-3.5972,4.0772l-0.0063-0.0013l-0.0321,0.0456c-0.0013,0.0021-0.003,0.0041-0.0042,0.0062
	l-0.0735,0.0883l0.0106,0.0025c-5.9655,8.8483-12.9788,17.0769-19.7625,25.0348c-2.9507,3.4618-6.0039,7.0417-8.9294,10.6284
	c-8.2507,7.4958-16.3307,15.4644-24.1423,23.1678c-13.6526,13.4652-27.7695,27.3879-43.2762,39.2539
	c-5.0084,4.1963-11.1094,6.5079-17.1818,6.5079c-1.7473,0-3.4952-0.2057-5.2052-0.5813c2.4498-0.8425,3.6301-3.4138,3.7044-5.6915
	c0.2073-0.2161,0.5072-0.5338,0.8118-0.8531c0.3071-0.3254,0.613-0.6479,0.8207-0.864c3.1324-1.2777,5.1372-3.7905,5.3698-6.7278
	c8.2899-12,17.7805-23.3744,26.959-34.374c6.1133-7.3232,12.4321-14.8981,18.3398-22.5874l0.9478-0.8273v0.0001
	c5.1993-4.3853,9.9342-9.4175,14.5137-14.2841c3.0986-3.2928,6.3039-6.6968,9.6235-9.8716c0.47-0.2855,1.4088-0.8293,1.928-1.1257
	c5.9883-0.4559,12.5547-4.4383,15.2825-9.2697c1.8157-3.2192,1.9096-6.6376,0.2792-9.892
	c5.3008-9.0585,14.6313-14.4462,23.6588-19.6556c6.1576-3.5532,12.5258-7.2279,17.6246-12.0513l0.0013-0.0005
	c0.4912-0.3866,1.4465-1.1392,1.9362-1.5429c1.4174-0.1775,3.5806-0.4526,5.6846-0.7216c1.8054-0.2311,3.5647-0.4554,4.7687-0.6058
	c0.5604,0.1054,1.1304,0.1617,1.6954,0.1617c3.1225,0,5.6631-1.5859,6.6663-4.1396c1.3657,0.9626,3.0387,1.4969,4.7269,1.4969
	c1.4788,0,2.8604-0.4142,4.0261-1.1796c-0.5184,1.395-0.4137,2.8668,0.3255,3.9794c0.5859,0.8798,1.4758,1.3846,2.4401,1.3846
	c0.8945,0,1.8073-0.4311,2.6461-1.2443c1.4569-0.4753,2.6981-0.7179,3.688-0.7179c1.4404,0,2.2898,0.515,2.3945,1.4489
	c0.2048,1.8355-2.4373,4.6106-6.155,5.4759L717.464,953.1429z"/>
</svg>
